<svg width="55" height="55" viewBox="0 0 55 55" fill="none" xmlns="http://www.w3.org/2000/svg">
<path d="M42.887 9.50251H40.2767V8.11036C40.2767 6.67101 39.1057 5.5 37.6663 5.5H16.7835C15.3441 5.5 14.1731 6.67101 14.1731 8.11036V9.50251H11.5627C10.1234 9.50251 8.95239 10.6735 8.95239 12.1129C8.95239 17.7736 11.6012 21.9336 15.8984 23.0919C17.3715 26.3343 19.7006 29.0908 22.657 31.0826C23.3379 31.5414 23.7444 32.3269 23.7444 33.1836V37.9779C23.148 38.1309 22.6008 38.441 22.1538 38.888C21.4962 39.5457 21.1341 40.4196 21.1341 41.3488H20.264C18.8246 41.3488 17.6536 42.5198 17.6536 43.9592V49.1799C17.6536 49.6604 18.0432 50.05 18.5237 50.05H35.926C36.4065 50.05 36.7961 49.6604 36.7961 49.1799V43.9592C36.7961 42.5198 35.6251 41.3488 34.1858 41.3488H33.3157C33.3157 39.7301 32.2048 38.3658 30.7053 37.9785V33.188C30.7053 32.3284 31.1121 31.5415 31.7937 31.0826C34.7503 29.0907 37.0794 26.3342 38.5524 23.0916C42.849 21.933 45.4974 17.7732 45.4974 12.1129C45.4974 10.6735 44.3264 9.50251 42.887 9.50251ZM10.6926 12.1129C10.6926 11.6331 11.083 11.2428 11.5627 11.2428H14.1731V15.1322C14.1731 17.1156 14.4736 19.0579 15.0667 20.9284C12.2978 19.5568 10.6926 16.3892 10.6926 12.1129ZM34.1858 43.0891C34.6656 43.0891 35.0559 43.4794 35.0559 43.9592V48.3097H19.3938V43.9592C19.3938 43.4794 19.7841 43.0891 20.264 43.0891H34.1858ZM38.5364 15.1322C38.5364 17.509 38.0632 19.8218 37.1298 22.0061C35.802 25.1139 33.6206 27.7534 30.8216 29.6392C29.6591 30.4217 28.9651 31.7484 28.9651 33.188V38.7385C28.9651 39.219 29.3548 39.6086 29.8352 39.6086C30.7948 39.6086 31.5755 40.3892 31.5755 41.3488H22.8743C22.8743 40.8844 23.0554 40.4475 23.3843 40.1186C23.697 39.8059 24.1074 39.6268 24.5463 39.6099C24.5689 39.6117 24.5915 39.6125 24.6144 39.6125C25.0949 39.6125 25.4846 39.219 25.4846 38.7385V33.1836C25.4846 31.7471 24.791 30.4221 23.6293 29.6394C20.83 27.7535 18.6487 25.114 17.3207 22.0059C16.3869 19.8224 15.9134 17.5097 15.9134 15.1322V8.11036C15.9134 7.63059 16.3037 7.24025 16.7835 7.24025H37.6663C38.1461 7.24025 38.5364 7.63059 38.5364 8.11036V15.1322ZM39.3834 20.9282C39.9763 19.0573 40.2767 17.1151 40.2767 15.1322V11.2428H42.887C43.3668 11.2428 43.7571 11.6331 43.7571 12.1129C43.7571 16.3889 42.1522 19.5565 39.3834 20.9282Z" fill="#084673"/>
<path d="M34.1111 15.7813C34.0089 15.4662 33.7365 15.2366 33.4087 15.189L29.6536 14.644L27.974 11.2405C27.8274 10.9435 27.5249 10.7555 27.1937 10.7555C26.8624 10.7555 26.56 10.9435 26.4134 11.2405L24.7338 14.644L20.9788 15.189C20.6509 15.2367 20.3787 15.4663 20.2763 15.7813C20.1739 16.0963 20.2593 16.4421 20.4965 16.6733L23.2142 19.322L22.5727 23.0624C22.5168 23.3888 22.651 23.7187 22.919 23.9134C23.187 24.108 23.5422 24.1337 23.8353 23.9796L27.1938 22.2139L30.553 23.9796C30.848 24.1346 31.2031 24.1068 31.4694 23.9133C31.7373 23.7186 31.8714 23.3886 31.8154 23.0621L31.1732 19.3219L33.8909 16.6733C34.1282 16.4421 34.2134 16.0963 34.1111 15.7813ZM29.631 18.3949C29.4259 18.5949 29.3322 18.883 29.3807 19.1653L29.8019 21.6188L27.5985 20.4606C27.3449 20.3274 27.0421 20.3274 26.7888 20.4607L24.5861 21.6188L25.0069 19.1652C25.0553 18.8828 24.9617 18.5948 24.7566 18.3949L22.9742 16.6578L25.4367 16.3004C25.7202 16.2592 25.9652 16.0812 26.092 15.8244L27.1938 13.5917L28.2955 15.8244C28.4223 16.0812 28.6673 16.2592 28.9508 16.3004L31.4134 16.6578L29.631 18.3949Z" fill="#FD9704"/>
<path d="M40.6257 47.4396H41.1108C40.8637 47.3906 40.6975 47.3857 40.6257 47.4396Z" fill="#212121"/>
</svg>
