<svg width="55" height="55" viewBox="0 0 55 55" fill="none" xmlns="http://www.w3.org/2000/svg">
<circle cx="27.5" cy="27.5" r="27.5" fill="white" fill-opacity="0.5"/>
<circle cx="28" cy="28" r="20" fill="white"/>
<path d="M14.3861 23.8068C15.6867 16.6532 23.2963 15.6972 28.0767 16.0678C44.0723 16.6237 41.866 29.4088 39.1081 32.744C35.8468 36.6882 27.3412 36.0792 23.1125 35.5233L18.1484 39.4145L18.7 34.9674C16.4936 33.8558 12.7952 32.5572 14.3861 23.8068Z" stroke="#51D613" stroke-width="1.5"/>
<path d="M25.5349 27.3133H23.4019L22.944 29.0093H21.4873L23.6516 22.2148H25.3476L27.5015 29.0093H25.9927L25.5349 27.3133ZM25.2436 26.2104L25.0563 25.5132C24.973 25.208 24.8482 24.7293 24.6817 24.0773L24.484 23.3073H24.4424C24.2343 24.2022 24.0505 24.9374 23.8909 25.5132L23.7036 26.2104H25.2436Z" fill="#51D613"/>
<path d="M30.0302 30.4348C29.5723 30.4348 29.2013 30.2891 28.9168 29.9978C28.6394 29.7065 28.5006 29.3388 28.5006 28.8949C28.5006 28.3469 28.733 27.9237 29.1978 27.6254C29.6625 27.3202 30.4083 27.1121 31.4349 27.0011C31.4141 26.4461 31.1296 26.1687 30.5816 26.1687C30.3666 26.1687 30.1481 26.2103 29.9261 26.2936C29.7041 26.3768 29.4614 26.4948 29.1978 26.6473L28.6879 25.7109C29.4163 25.2599 30.1377 25.0345 30.8522 25.0345C31.5112 25.0345 32.0107 25.2287 32.3505 25.6172C32.6904 25.9987 32.8604 26.571 32.8604 27.3341V30.31H31.695L31.5909 29.7689H31.5597C31.0464 30.2128 30.5365 30.4348 30.0302 30.4348ZM30.4984 29.3319C30.6718 29.3319 30.8279 29.2938 30.9666 29.2174C31.1123 29.1342 31.2684 29.0128 31.4349 28.8532V27.8647C30.873 27.9411 30.4707 28.0556 30.2279 28.2081C29.985 28.3607 29.8637 28.5515 29.8637 28.7804C29.8637 28.9608 29.9192 29.0994 30.0302 29.1966C30.1411 29.2867 30.2972 29.3319 30.4984 29.3319Z" fill="#51D613"/>
</svg>
