<svg width="56" height="55" viewBox="0 0 56 55" fill="none" xmlns="http://www.w3.org/2000/svg">
<path d="M51.49 13.1375C51.4867 13.1375 51.4835 13.1375 51.4804 13.1375H48.2639V12.0368C48.2813 11.6012 47.9994 11.2097 47.5808 11.088C45.3477 10.5028 43.0482 10.2094 40.7397 10.215C36.9444 10.215 31.7733 11.069 27.9495 14.9592C24.1542 11.031 18.9451 10.215 15.1593 10.215C12.8509 10.2094 10.5514 10.5028 8.31832 11.088C7.8996 11.2097 7.61784 11.6012 7.63516 12.0368V13.128H4.4376C3.91361 13.128 3.48877 13.5528 3.48877 14.0768V44.3823C3.48877 44.9063 3.91361 45.3312 4.4376 45.3312C4.60056 45.3307 4.76067 45.2882 4.90252 45.2078C4.9974 45.1603 14.4857 39.9703 27.7313 43.3101H27.8736H27.959C28.0347 43.3193 28.1111 43.3193 28.1867 43.3101C41.4703 39.9418 50.9586 45.1224 51.0155 45.2078C51.3091 45.3773 51.6708 45.3773 51.9643 45.2078C52.2561 45.0394 52.4367 44.7288 52.4388 44.3918V14.0863C52.4388 13.5623 52.0141 13.1375 51.49 13.1375ZM5.38642 42.8737V15.0351H7.65414V38.8317C7.6482 39.3557 8.06818 39.7852 8.59216 39.7912C8.64337 39.7918 8.69463 39.7882 8.74528 39.7805C10.7082 39.4808 12.6899 39.3223 14.6754 39.3061C17.4259 39.2584 20.1648 39.6721 22.7784 40.5301C16.8762 39.8163 10.8892 40.6231 5.38642 42.8737ZM14.6754 37.4179C12.9496 37.4218 11.2258 37.5327 9.5138 37.75V12.7864C11.3612 12.3748 13.2477 12.1648 15.1404 12.1602C18.689 12.1602 23.5849 12.9762 26.9817 16.8094L27.0102 40.4447C25.0366 39.1543 21.1844 37.4179 14.6754 37.4179ZM28.9078 16.8094C32.3046 13.0141 37.2006 12.1602 40.7492 12.1602C42.6418 12.1657 44.5283 12.3757 46.3758 12.7864V37.75C44.6733 37.5307 42.959 37.4166 41.2426 37.4085C34.7716 37.4085 30.9099 39.1448 28.9078 40.4352V16.8094ZM50.5316 42.8737C45.0171 40.6169 39.0164 39.8101 33.1016 40.5301C35.7277 39.669 38.4796 39.2552 41.2426 39.3061C43.2406 39.3173 45.2351 39.4726 47.2107 39.7711C47.7288 39.8496 48.2126 39.4934 48.2912 38.9753C48.2989 38.9247 48.3025 38.8735 48.3019 38.8222V15.0351H50.5696L50.5316 42.8737Z" fill="#084673"/>
<path d="M12.2959 20.4776C15.1681 20.0477 21.5691 19.9617 24.1951 23.0568M12.2959 28.2152C15.1681 27.7854 21.5691 27.6994 24.1951 30.7945M44.7111 20.4776C41.8389 20.0477 35.4379 19.9617 32.8118 23.0568M44.7111 28.2152C41.8389 27.7854 35.4379 27.6994 32.8118 30.7945" stroke="#FD9704" stroke-width="2" stroke-linecap="round"/>
</svg>
