<svg width="566" height="280" viewBox="0 0 566 280" fill="none" xmlns="http://www.w3.org/2000/svg">
<g clip-path="url(#clip0)">
<path d="M324.542 274.012C321.039 274.01 317.68 272.618 315.203 270.142C312.727 267.667 311.336 264.31 311.336 260.81C311.336 257.31 312.727 253.954 315.203 251.478C317.68 249.002 321.039 247.61 324.542 247.608H520.825C519.838 245.797 518.381 244.286 516.607 243.232C514.833 242.178 512.807 241.622 510.744 241.62H120.584C115.494 241.626 110.614 243.65 107.017 247.248C103.42 250.847 101.4 255.725 101.4 260.81C101.403 265.895 103.424 270.771 107.021 274.368C110.617 277.966 115.495 279.991 120.584 280H510.744C512.807 279.999 514.833 279.442 516.607 278.388C518.381 277.335 519.838 275.823 520.825 274.012L324.542 274.012Z" fill="#CCCCCC"/>
<path d="M521.086 254.883H334.466C334.18 254.882 333.906 254.768 333.705 254.566C333.503 254.364 333.39 254.09 333.39 253.805C333.39 253.519 333.503 253.246 333.705 253.044C333.906 252.842 334.18 252.728 334.466 252.727H521.086C521.371 252.728 521.645 252.842 521.847 253.044C522.049 253.246 522.162 253.519 522.162 253.805C522.162 254.09 522.049 254.364 521.847 254.566C521.645 254.768 521.371 254.882 521.086 254.883Z" fill="#CCCCCC"/>
<path d="M521.086 261.887H334.466C334.18 261.887 333.905 261.774 333.703 261.572C333.501 261.37 333.387 261.095 333.387 260.81C333.387 260.524 333.501 260.25 333.703 260.048C333.905 259.845 334.18 259.732 334.466 259.732H521.086C521.372 259.732 521.646 259.845 521.849 260.048C522.051 260.25 522.165 260.524 522.165 260.81C522.165 261.095 522.051 261.37 521.849 261.572C521.646 261.774 521.372 261.887 521.086 261.887V261.887Z" fill="#CCCCCC"/>
<path d="M521.086 268.893H334.466C334.18 268.892 333.906 268.778 333.705 268.576C333.503 268.374 333.39 268.1 333.39 267.815C333.39 267.53 333.503 267.256 333.705 267.054C333.906 266.852 334.18 266.738 334.466 266.737H521.086C521.371 266.738 521.645 266.852 521.847 267.054C522.049 267.256 522.162 267.53 522.162 267.815C522.162 268.1 522.049 268.374 521.847 268.576C521.645 268.778 521.371 268.892 521.086 268.893Z" fill="#CCCCCC"/>
<path d="M273.841 236.83C270.338 236.828 266.979 235.436 264.503 232.96C262.027 230.485 260.636 227.128 260.636 223.628C260.636 220.128 262.027 216.771 264.503 214.296C266.979 211.82 270.338 210.428 273.841 210.426H470.125C469.137 208.615 467.68 207.104 465.906 206.05C464.132 204.996 462.107 204.44 460.043 204.438H69.8841C64.7938 204.444 59.914 206.468 56.3169 210.066C52.7197 213.665 50.6995 218.542 50.7 223.628C50.7026 228.713 52.7239 233.589 56.3203 237.186C59.9168 240.784 64.7948 242.809 69.8841 242.818H460.043C462.107 242.817 464.132 242.26 465.906 241.206C467.68 240.152 469.137 238.641 470.125 236.83L273.841 236.83Z" fill="#137ECB"/>
<path d="M470.385 217.7H283.766C283.48 217.7 283.206 217.586 283.005 217.384C282.803 217.182 282.689 216.908 282.689 216.623C282.689 216.337 282.803 216.064 283.005 215.861C283.206 215.659 283.48 215.546 283.766 215.545H470.385C470.672 215.545 470.946 215.658 471.148 215.861C471.351 216.063 471.464 216.337 471.464 216.623C471.464 216.908 471.351 217.183 471.148 217.385C470.946 217.587 470.672 217.7 470.385 217.7V217.7Z" fill="#CCCCCC"/>
<path d="M470.386 224.706H283.766C283.48 224.706 283.205 224.592 283.003 224.39C282.801 224.188 282.687 223.914 282.687 223.628C282.687 223.342 282.801 223.068 283.003 222.866C283.205 222.664 283.48 222.55 283.766 222.55H470.386C470.672 222.55 470.946 222.664 471.148 222.866C471.351 223.068 471.464 223.342 471.464 223.628C471.464 223.914 471.351 224.188 471.148 224.39C470.946 224.592 470.672 224.706 470.386 224.706V224.706Z" fill="#CCCCCC"/>
<path d="M470.385 231.711H283.766C283.48 231.71 283.206 231.597 283.005 231.395C282.803 231.193 282.689 230.919 282.689 230.633C282.689 230.348 282.803 230.074 283.005 229.872C283.206 229.67 283.48 229.556 283.766 229.556H470.385C470.527 229.555 470.668 229.583 470.799 229.637C470.93 229.691 471.049 229.77 471.15 229.87C471.25 229.971 471.33 230.089 471.384 230.22C471.439 230.351 471.467 230.492 471.467 230.633C471.467 230.775 471.439 230.916 471.384 231.046C471.33 231.177 471.25 231.296 471.15 231.396C471.049 231.497 470.93 231.576 470.799 231.63C470.668 231.684 470.527 231.711 470.385 231.711V231.711Z" fill="#CCCCCC"/>
<path d="M223.141 198.408C219.638 198.406 216.279 197.014 213.803 194.538C211.327 192.062 209.936 188.706 209.936 185.206C209.936 181.706 211.327 178.349 213.803 175.873C216.279 173.398 219.638 172.006 223.141 172.003H419.425C418.437 170.193 416.98 168.681 415.206 167.628C413.432 166.574 411.407 166.017 409.343 166.016H19.1838C14.0935 166.021 9.21376 168.046 5.61665 171.644C2.01955 175.242 -0.000633327 180.12 1.48936e-07 185.206C0.00257547 190.29 2.02379 195.166 5.6202 198.764C9.21661 202.361 14.0945 204.387 19.1838 204.396H409.343C411.407 204.394 413.432 203.837 415.206 202.784C416.98 201.73 418.437 200.219 419.425 198.408L223.141 198.408Z" fill="#CCCCCC"/>
<path d="M419.685 179.278H233.065C232.78 179.277 232.506 179.164 232.304 178.961C232.103 178.759 231.989 178.486 231.989 178.2C231.989 177.915 232.103 177.641 232.304 177.439C232.506 177.237 232.78 177.123 233.065 177.123H419.685C419.971 177.123 420.246 177.236 420.448 177.438C420.65 177.64 420.764 177.914 420.764 178.2C420.764 178.486 420.65 178.76 420.448 178.962C420.246 179.165 419.971 179.278 419.685 179.278Z" fill="#CCCCCC"/>
<path d="M419.685 186.283H233.066C232.924 186.283 232.784 186.256 232.653 186.201C232.522 186.147 232.403 186.068 232.303 185.968C232.203 185.868 232.123 185.749 232.069 185.618C232.015 185.487 231.987 185.347 231.987 185.206C231.987 185.064 232.015 184.924 232.069 184.793C232.123 184.662 232.203 184.544 232.303 184.444C232.403 184.344 232.522 184.264 232.653 184.21C232.784 184.156 232.924 184.128 233.066 184.128H419.685C419.827 184.128 419.967 184.156 420.098 184.21C420.229 184.264 420.348 184.344 420.448 184.444C420.548 184.544 420.628 184.662 420.682 184.793C420.736 184.924 420.764 185.064 420.764 185.206C420.764 185.347 420.736 185.487 420.682 185.618C420.628 185.749 420.548 185.868 420.448 185.968C420.348 186.068 420.229 186.147 420.098 186.201C419.967 186.256 419.827 186.283 419.685 186.283V186.283Z" fill="#CCCCCC"/>
<path d="M419.685 193.289H233.066C232.779 193.289 232.505 193.175 232.303 192.973C232.1 192.771 231.987 192.497 231.987 192.211C231.987 191.925 232.1 191.651 232.303 191.449C232.505 191.247 232.779 191.133 233.066 191.133H419.685C419.827 191.133 419.967 191.161 420.098 191.215C420.229 191.269 420.348 191.349 420.448 191.449C420.548 191.549 420.628 191.668 420.682 191.799C420.736 191.929 420.764 192.069 420.764 192.211C420.764 192.353 420.736 192.493 420.682 192.623C420.628 192.754 420.548 192.873 420.448 192.973C420.348 193.073 420.229 193.153 420.098 193.207C419.967 193.261 419.827 193.289 419.685 193.289V193.289Z" fill="#CCCCCC"/>
<path d="M423.995 116.441C422.971 116.44 421.986 116.05 421.24 115.35C420.493 114.65 420.041 113.693 419.974 112.673L419.375 103.537C419.305 102.47 419.662 101.419 420.368 100.615C421.074 99.8107 422.07 99.3198 423.138 99.2498L494.781 94.5623C495.91 94.4885 497.043 94.6375 498.114 95.001C499.186 95.3645 500.175 95.9354 501.026 96.6809C501.877 97.4265 502.573 98.3322 503.073 99.3463C503.574 100.36 503.869 101.463 503.943 102.591C504.017 103.72 503.868 104.851 503.504 105.922C503.14 106.993 502.569 107.981 501.823 108.831C501.076 109.681 500.17 110.376 499.155 110.876C498.14 111.376 497.036 111.672 495.907 111.745L424.265 116.433C424.174 116.438 424.084 116.441 423.995 116.441Z" fill="#137ECB"/>
<path d="M438.122 117.62C437.078 117.618 436.076 117.213 435.324 116.489C434.573 115.766 434.131 114.78 434.09 113.738L433.58 100.092C433.56 99.5631 433.645 99.0352 433.829 98.5388C434.014 98.0424 434.294 97.5871 434.655 97.199C435.015 96.8109 435.449 96.4975 435.93 96.2768C436.412 96.0561 436.933 95.9324 437.462 95.9126L496.376 93.7128C497.445 93.6729 498.487 94.0591 499.272 94.7865C500.056 95.5139 500.519 96.5229 500.559 97.5915L501.07 111.237C501.09 111.766 501.005 112.294 500.821 112.791C500.636 113.287 500.356 113.742 499.995 114.13C499.635 114.518 499.201 114.832 498.72 115.053C498.238 115.273 497.717 115.397 497.188 115.417L438.274 117.617C438.223 117.619 438.172 117.62 438.122 117.62Z" fill="#2F2E41"/>
<path d="M507.159 243.407H497.995C496.925 243.406 495.899 242.981 495.142 242.225C494.386 241.469 493.96 240.444 493.959 239.375V163.068C493.96 161.999 494.386 160.974 495.142 160.218C495.899 159.462 496.925 159.037 497.995 159.036H507.159C508.229 159.037 509.255 159.462 510.011 160.218C510.768 160.974 511.193 161.999 511.195 163.068V239.375C511.193 240.444 510.768 241.469 510.011 242.225C509.255 242.981 508.229 243.406 507.159 243.407V243.407Z" fill="#2F2E41"/>
<path d="M466.483 203.072L458.646 198.326C457.732 197.771 457.075 196.876 456.82 195.838C456.566 194.799 456.733 193.703 457.287 192.788L496.877 127.532C497.433 126.619 498.329 125.963 499.368 125.708C500.407 125.453 501.505 125.621 502.42 126.174L510.257 130.92C511.171 131.475 511.828 132.37 512.083 133.408C512.338 134.446 512.17 135.543 511.616 136.458L472.026 201.714C471.47 202.627 470.575 203.283 469.536 203.538C468.496 203.792 467.399 203.625 466.483 203.072Z" fill="#2F2E41"/>
<path d="M493.24 79.4009C510.729 79.4009 524.906 65.237 524.906 47.7649C524.906 30.2928 510.729 16.1289 493.24 16.1289C475.752 16.1289 461.575 30.2928 461.575 47.7649C461.575 65.237 475.752 79.4009 493.24 79.4009Z" fill="#137ECB"/>
<path d="M476.1 58.5666C475.082 58.2322 474.147 57.6838 473.358 56.9583C472.835 56.4402 472.432 55.8143 472.177 55.1244C471.922 54.4344 471.821 53.6971 471.882 52.9641C471.915 52.4418 472.068 51.9343 472.33 51.4811C472.592 51.028 472.956 50.6415 473.392 50.3519C474.524 49.6262 476.039 49.624 477.581 50.3029L477.522 37.9527L478.764 37.9468L478.833 52.4658L477.876 51.8645C476.767 51.1684 475.182 50.6785 474.063 51.3962C473.786 51.5858 473.557 51.8366 473.393 52.1291C473.229 52.4217 473.135 52.748 473.118 53.0828C473.076 53.6288 473.152 54.1774 473.342 54.6913C473.531 55.2052 473.829 55.6723 474.215 56.0608C475.587 57.3694 477.587 57.7786 479.868 58.1443L479.672 59.3692C478.46 59.2087 477.264 58.9401 476.1 58.5666V58.5666Z" fill="#2F2E41"/>
<path d="M464.722 37.3283L464.56 38.5581L471.19 39.4329L471.353 38.2031L464.722 37.3283Z" fill="#2F2E41"/>
<path d="M485.651 40.0891L485.488 41.3188L492.118 42.1937L492.281 40.9639L485.651 40.0891Z" fill="#2F2E41"/>
<path d="M519.681 183.541H466.285C464.886 183.54 463.544 182.984 462.555 181.995C461.565 181.007 461.009 179.667 461.007 178.269L472.186 92.6253C472.195 91.2337 472.755 89.9023 473.743 88.9218C474.731 87.9414 476.068 87.3916 477.461 87.3926H496.41C503.979 87.4011 511.235 90.4089 516.587 95.7559C521.939 101.103 524.95 108.353 524.958 115.915V178.269C524.957 179.667 524.4 181.007 523.411 181.995C522.422 182.984 521.08 183.54 519.681 183.541Z" fill="#2F2E41"/>
<path d="M565.621 149.794C565.951 150.499 566.069 151.285 565.963 152.056C565.856 152.827 565.529 153.551 565.02 154.141L559.029 161.069C558.682 161.469 558.26 161.798 557.787 162.036C557.313 162.273 556.797 162.416 556.269 162.454C555.74 162.493 555.209 162.427 554.706 162.26C554.203 162.094 553.738 161.83 553.337 161.484L499.009 114.59C498.152 113.851 497.45 112.95 496.941 111.94C496.433 110.929 496.129 109.829 496.046 108.701C495.964 107.573 496.105 106.44 496.46 105.367C496.816 104.293 497.38 103.301 498.12 102.445C498.86 101.589 499.761 100.888 500.773 100.38C501.784 99.8724 502.886 99.5688 504.015 99.4866C505.144 99.4045 506.278 99.5452 507.352 99.901C508.426 100.257 509.42 100.82 510.276 101.56L564.604 148.454C565.034 148.824 565.381 149.281 565.621 149.794V149.794Z" fill="#137ECB"/>
<path d="M553.63 134.319C553.96 135.024 554.078 135.809 553.972 136.58C553.865 137.352 553.538 138.075 553.029 138.665L542.796 150.499C542.096 151.307 541.103 151.804 540.036 151.882C538.969 151.96 537.914 151.611 537.104 150.913L492.493 112.407C492.092 112.061 491.763 111.639 491.525 111.166C491.287 110.693 491.145 110.177 491.106 109.649C491.067 109.121 491.133 108.591 491.3 108.088C491.467 107.585 491.731 107.12 492.077 106.72L502.31 94.8863C502.657 94.4856 503.079 94.157 503.552 93.9193C504.026 93.6816 504.542 93.5395 505.07 93.5009C505.599 93.4624 506.13 93.5283 506.633 93.6948C507.136 93.8613 507.601 94.1252 508.002 94.4714L552.614 132.978C553.043 133.348 553.39 133.805 553.63 134.319V134.319Z" fill="#2F2E41"/>
<path d="M493.833 29.0013C489.6 25.5016 483.941 28.8116 479.154 28.3418C474.574 27.8923 470.888 23.8657 469.884 19.5325C468.712 14.4772 471.252 9.34201 475.079 6.1036C479.27 2.55675 484.896 1.45456 490.259 1.99427C496.404 2.61285 502.066 5.362 507.164 8.72051C512.082 11.859 516.621 15.5556 520.689 19.7364C524.334 23.608 527.448 28.2461 528.514 33.5287C529.484 38.3295 528.915 43.6806 526.142 47.8157C524.671 49.9361 522.677 51.6418 520.353 52.7682C517.932 54.0137 515.341 54.9204 512.998 56.3212C509.457 58.4391 506.058 62.7557 507.263 67.1578C507.522 68.1195 508.014 69.0029 508.695 69.7302C509.513 70.6036 510.936 69.402 510.115 68.5263C508.675 66.9882 508.691 64.9003 509.407 63.0178C510.261 60.8956 511.811 59.1261 513.804 57.9993C516.255 56.5364 518.975 55.6105 521.491 54.2725C523.901 53.0483 525.978 51.2605 527.547 49.0615C530.508 44.782 531.313 39.2705 530.526 34.2009C529.676 28.7149 526.752 23.7705 523.126 19.6494C519.181 15.1646 514.368 11.3962 509.459 8.0219C504.193 4.40126 498.392 1.36584 492.019 0.349147C486.493 -0.532171 480.537 0.188065 475.778 3.27743C471.337 6.16114 467.982 11.0404 467.742 16.4259C467.665 18.8756 468.243 21.3015 469.417 23.4538C470.59 25.6062 472.317 27.4072 474.418 28.6717C476.573 29.9053 479.062 30.4317 481.532 30.1766C484.175 29.9572 486.807 29.0976 489.474 29.2718C490.68 29.322 491.837 29.7636 492.769 30.5298C493.694 31.2944 494.75 29.7597 493.833 29.0013V29.0013Z" fill="#2F2E41"/>
<path d="M456.599 193.89C456.61 193.82 456.624 193.751 456.639 193.681C456.749 193.163 456.961 192.672 457.263 192.236C457.565 191.8 457.95 191.429 458.396 191.143L466.097 186.18C466.997 185.602 468.09 185.404 469.135 185.629C470.181 185.855 471.095 186.486 471.676 187.383L495.432 224.18C496.012 225.079 496.211 226.171 495.985 227.216C495.759 228.261 495.127 229.174 494.228 229.754L486.527 234.717C485.627 235.295 484.534 235.493 483.488 235.268C482.442 235.042 481.529 234.411 480.948 233.514L457.192 196.717C456.649 195.881 456.438 194.873 456.599 193.89V193.89Z" fill="#2F2E41"/>
</g>
<defs>
<clipPath id="clip0">
<rect width="566" height="280" fill="white"/>
</clipPath>
</defs>
</svg>
