<svg width="26" height="26" viewBox="0 0 26 26" fill="none" xmlns="http://www.w3.org/2000/svg">
<path fill-rule="evenodd" clip-rule="evenodd" d="M7.58334 3.24992C5.19011 3.24992 3.25001 5.19002 3.25001 7.58325V18.4166C3.25001 20.8098 5.19011 22.7499 7.58334 22.7499H18.4167C20.8099 22.7499 22.75 20.8098 22.75 18.4166V7.58325C22.75 5.19002 20.8099 3.24992 18.4167 3.24992H7.58334ZM1.08334 7.58325C1.08334 3.9934 3.99349 1.08325 7.58334 1.08325H18.4167C22.0065 1.08325 24.9167 3.9934 24.9167 7.58325V18.4166C24.9167 22.0064 22.0065 24.9166 18.4167 24.9166H7.58334C3.99349 24.9166 1.08334 22.0064 1.08334 18.4166V7.58325Z" fill="white"/>
<path fill-rule="evenodd" clip-rule="evenodd" d="M13.5236 9.7382C12.8474 9.63793 12.1568 9.75343 11.55 10.0683C10.9432 10.3831 10.4512 10.8813 10.1438 11.4919C9.83651 12.1025 9.72953 12.7945 9.83814 13.4694C9.94674 14.1443 10.2654 14.7678 10.7488 15.2511C11.2321 15.7345 11.8556 16.0532 12.5305 16.1618C13.2054 16.2704 13.8974 16.1634 14.508 15.8561C15.1186 15.5487 15.6168 15.0567 15.9316 14.4499C16.2465 13.8431 16.362 13.1525 16.2617 12.4763C16.1594 11.7866 15.838 11.148 15.345 10.655C14.8519 10.1619 14.2133 9.84048 13.5236 9.7382ZM10.5521 8.14509C11.5634 7.62035 12.7144 7.42785 13.8414 7.59497C14.991 7.76544 16.0553 8.30112 16.877 9.12289C17.6988 9.94465 18.2345 11.0089 18.4049 12.1585C18.5721 13.2855 18.3796 14.4365 17.8548 15.4478C17.3301 16.4591 16.4998 17.2792 15.4821 17.7914C14.4645 18.3036 13.3112 18.4819 12.1863 18.3009C11.0615 18.1199 10.0223 17.5888 9.2167 16.7832C8.41108 15.9776 7.87999 14.9384 7.69899 13.8136C7.51798 12.6887 7.69628 11.5355 8.2085 10.5178C8.72073 9.50009 9.54081 8.66983 10.5521 8.14509Z" fill="white"/>
</svg>
