<svg width="55" height="55" viewBox="0 0 55 55" fill="none" xmlns="http://www.w3.org/2000/svg">
<path d="M3.26953 20.6123C5.69273 7.22267 19.8716 5.43333 28.7787 6.12691C58.5828 7.16741 54.4719 31.0979 49.3332 37.3406C43.2564 44.7232 27.4083 43.5834 19.5292 42.5429L10.2796 49.8261L11.3074 41.5024C7.19624 39.4216 0.305169 36.991 3.26953 20.6123Z" stroke="#084673" stroke-width="2.3"/>
<path d="M23.1636 26.7568H18.4115L17.3916 30.5353H14.1462L18.9679 15.3982H22.7463L27.5447 30.5353H24.1835L23.1636 26.7568ZM22.5145 24.2996L22.0973 22.7465C21.9118 22.0664 21.6336 21.0001 21.2627 19.5476L20.8223 17.8322H20.7296C20.266 19.8257 19.8565 21.4637 19.501 22.7465L19.0838 24.2996H22.5145Z" fill="#FD9704"/>
<path d="M33.1781 33.7113C32.1581 33.7113 31.3314 33.3867 30.6977 32.7377C30.0797 32.0886 29.7705 31.2694 29.7705 30.2805C29.7705 29.0597 30.2883 28.1169 31.3236 27.4524C32.3589 26.7724 34.0204 26.3088 36.3075 26.0616C36.2611 24.8252 35.6274 24.2071 34.4067 24.2071C33.9277 24.2071 33.4409 24.2999 32.9463 24.4853C32.4517 24.6707 31.911 24.9336 31.3236 25.2734L30.1878 23.1872C31.8104 22.1826 33.4177 21.6804 35.0094 21.6804C36.4776 21.6804 37.5903 22.113 38.3474 22.9785C39.1045 23.8284 39.4833 25.1034 39.4833 26.8034V33.4331H36.887L36.6552 32.2277H36.5857C35.442 33.2166 34.3061 33.7113 33.1781 33.7113ZM34.2212 31.2541C34.6075 31.2541 34.9552 31.1692 35.2644 30.9991C35.5889 30.8136 35.9366 30.5433 36.3075 30.1878V27.9856C35.0557 28.1557 34.1595 28.4107 33.6185 28.7506C33.0775 29.0905 32.8072 29.5155 32.8072 30.0255C32.8072 30.4274 32.9309 30.7363 33.1781 30.9527C33.4252 31.1535 33.773 31.2541 34.2212 31.2541Z" fill="#084673"/>
</svg>
