<svg width="55" height="55" viewBox="0 0 55 55" fill="none" xmlns="http://www.w3.org/2000/svg">
<circle cx="27.5" cy="27.5" r="27.5" fill="white" fill-opacity="0.5"/>
<circle cx="28" cy="28" r="20" fill="white"/>
<rect x="16.7" y="16.7" width="21.6" height="21.6" rx="4.3" stroke="#1A8FE2" stroke-width="1.4"/>
<line x1="16" y1="27.1965" x2="38.2069" y2="27.1965" stroke="#1A8FE2" stroke-width="1.4"/>
<line x1="27.8034" y1="16" x2="27.8034" y2="39" stroke="#1A8FE2" stroke-width="1.4"/>
<path d="M24.1097 21.935H22.7867V23.293H21.8627V21.935H20.5397V21.081H21.8627V19.723H22.7867V21.081H24.1097V21.935Z" fill="#1A8FE2"/>
<path d="M34.5341 21.088V21.914H31.5661V21.088H34.5341Z" fill="#1A8FE2"/>
<path d="M34.7628 31.3445V32.1985H30.9478V31.3445H34.7628ZM34.7628 33.0245V33.8785H30.9478V33.0245H34.7628Z" fill="#1A8FE2"/>
<path d="M22.5907 35.1035L21.7927 33.8995L21.0857 35.1035H20.0357L21.3027 33.1575L20.0217 31.2255H21.1277L21.9187 32.4225L22.6327 31.2255H23.6827L22.4087 33.1575L23.6967 35.1035H22.5907Z" fill="#1A8FE2"/>
</svg>
