<svg width="468" height="412" viewBox="0 0 468 412" fill="none" xmlns="http://www.w3.org/2000/svg">
<path d="M387.628 364.478C387.628 378.343 313.069 389.585 221.095 389.585C129.122 389.585 54.564 378.343 54.564 364.478C54.564 354.662 91.937 346.158 146.403 342.033C168.865 340.328 194.241 339.372 221.095 339.372C232.134 339.372 242.922 339.534 253.355 339.841C329.89 342.109 387.628 352.276 387.628 364.478Z" fill="#3F3D56"/>
<path opacity="0.1" d="M199.607 369.607C234.913 369.607 263.534 366.103 263.534 361.779C263.534 357.455 234.913 353.949 199.607 353.949C164.302 353.949 135.68 357.455 135.68 361.779C135.68 366.103 164.302 369.607 199.607 369.607Z" fill="black"/>
<path d="M199.34 367.447C232.717 367.447 259.774 338.44 259.774 302.656C259.774 266.873 232.717 237.866 199.34 237.866C165.963 237.866 138.904 266.873 138.904 302.656C138.904 338.44 165.963 367.447 199.34 367.447Z" fill="#3F3D56"/>
<path d="M218.41 340.991H180.806V375.547H218.41V340.991Z" fill="#137ECB"/>
<path d="M267.563 349.36L265.415 361.238L279.383 363.398L288.514 357.999L287.978 349.36H267.563Z" fill="#575A89"/>
<path d="M197.19 126.371C197.19 126.371 196.117 138.789 193.43 139.329C190.743 139.869 199.34 161.466 199.34 161.466H212.233L222.439 158.766L217.604 146.888C217.604 146.888 211.158 138.249 215.993 131.23C220.828 124.211 197.19 126.371 197.19 126.371Z" fill="#FFBFA1"/>
<path opacity="0.1" d="M197.19 126.371C197.19 126.371 196.117 138.789 193.43 139.329C190.743 139.869 199.34 161.466 199.34 161.466H212.233L222.439 158.766L217.604 146.888C217.604 146.888 211.158 138.249 215.993 131.23C220.828 124.211 197.19 126.371 197.19 126.371Z" fill="black"/>
<path d="M170.33 221.398C170.33 221.398 156.364 248.395 167.644 253.794C178.925 259.193 181.612 258.653 181.612 260.273C181.612 261.892 179.464 261.353 180.537 264.052C181.612 266.752 178.389 277.55 181.612 284.029C184.835 290.508 183.76 295.367 183.76 295.367C183.76 295.367 183.76 295.908 184.835 298.067C185.91 300.227 186.447 301.846 185.91 302.927C185.372 304.007 182.148 311.025 185.372 312.646C188.595 314.265 205.248 315.345 206.86 312.646C208.471 309.946 205.248 308.326 206.86 306.706C208.471 305.087 209.546 304.546 208.471 303.466C207.398 302.387 206.323 288.888 206.323 288.888C206.323 288.888 209.01 273.231 207.935 271.071C206.86 268.912 205.248 266.752 206.323 265.132C207.398 263.511 208.471 264.052 209.01 261.892C209.546 259.732 210.621 254.874 210.621 254.874L216.529 254.333L230.497 257.032C230.497 257.032 246.075 274.311 263.267 279.71C263.267 279.71 268.102 284.57 269.713 284.57C271.325 284.57 271.325 284.57 270.786 285.65C270.25 286.728 268.638 286.728 269.713 287.808C270.786 288.888 272.398 287.269 271.325 288.888C270.25 290.508 269.175 290.508 270.25 291.588C271.325 292.668 269.713 298.608 269.713 299.147C269.713 299.688 264.878 350.44 266.49 351.52C268.102 352.6 290.663 355.839 292.274 351.52C293.886 347.2 291.201 341.801 291.201 341.801C291.201 341.801 299.259 277.01 297.109 272.692C294.961 268.371 287.439 248.934 247.15 236.515C247.15 236.515 235.869 234.356 235.869 232.737C235.869 231.116 234.794 220.857 232.646 220.318C230.497 219.777 218.141 219.238 218.141 219.238L202.563 224.098L181.075 220.318L170.33 221.398Z" fill="#2F2E41"/>
<path d="M189.132 312.105L186.447 321.824C186.447 321.824 184.297 337.482 186.983 341.262C189.094 344.23 192.86 347.865 199.846 348.503C201.805 348.684 203.765 348.186 205.403 347.095C207.043 346.004 208.262 344.383 208.859 342.501C208.94 342.275 208.99 342.04 209.008 341.801C209.008 340.721 207.396 327.763 207.396 327.763L204.711 314.265L204.173 310.486L189.132 312.105Z" fill="#2F2E41"/>
<path d="M267.563 358.539C267.563 358.539 264.877 355.839 264.34 358.539C263.803 361.238 261.654 372.577 265.415 373.118C269.175 373.657 305.168 379.056 308.927 376.897C312.687 374.737 319.672 371.497 315.374 369.877C311.076 368.258 298.721 363.398 298.721 363.398C298.721 363.398 291.738 354.22 290.663 353.679C289.588 353.14 283.68 354.22 280.993 356.38C278.308 358.539 267.563 358.539 267.563 358.539Z" fill="#2F2E41"/>
<path d="M210.083 137.709C219.281 137.709 226.736 130.215 226.736 120.971C226.736 111.727 219.281 104.233 210.083 104.233C200.885 104.233 193.43 111.727 193.43 120.971C193.43 130.215 200.885 137.709 210.083 137.709Z" fill="#FFBFA1"/>
<path d="M208.471 158.766L202.025 151.747L194.88 137.709C194.88 137.709 189.67 136.089 188.595 138.789C187.52 141.489 168.181 150.127 168.181 150.127C168.181 150.127 173.015 195.48 170.867 199.801C168.719 204.12 164.959 221.398 168.181 223.018C171.404 224.637 186.447 223.018 191.282 225.178C196.115 227.336 210.083 227.336 213.843 224.637C217.604 221.938 218.678 219.777 222.438 221.398C225.64 222.776 233.124 175.633 235.278 161.584C235.46 160.405 235.309 159.197 234.843 158.098C234.378 157 233.615 156.055 232.643 155.37C227.822 151.971 219.14 146.116 217.604 146.888C215.454 147.968 208.471 158.766 208.471 158.766Z" fill="#575A89"/>
<path d="M231.571 156.606C232.832 156.924 233.968 157.621 234.822 158.605C235.679 159.589 236.214 160.812 236.358 162.112L240.704 201.42C240.704 201.42 229.959 224.637 224.588 208.979C219.216 193.322 231.571 156.606 231.571 156.606Z" fill="#575A89"/>
<path d="M230.496 205.2L242.316 201.96C242.316 201.96 244.464 217.078 246.612 217.078C248.76 217.078 239.092 225.717 234.257 224.637C229.422 223.557 222.438 219.777 221.901 217.078C221.364 214.378 226.736 203.04 226.736 203.04L230.496 205.2Z" fill="#575A89"/>
<path d="M197.511 128.192C198.643 125.682 198.447 122.755 199.383 120.165C199.885 118.778 200.698 117.526 201.761 116.508C202.823 115.489 204.105 114.731 205.506 114.293C206.909 113.855 208.392 113.749 209.841 113.982C211.291 114.216 212.667 114.783 213.862 115.64C215.067 116.503 216.275 117.715 217.744 117.551C219.327 117.373 220.739 115.598 222.194 116.249C223.807 116.97 223.372 119.875 225.006 120.546C225.867 120.9 226.883 120.356 227.379 119.566C227.813 118.736 228.05 117.817 228.069 116.879C228.296 114.576 228.5 112.139 227.506 110.052C227.088 109.344 226.723 108.606 226.416 107.844C226.242 107.132 226.173 106.398 226.209 105.665C226.199 102.959 226.003 100.135 224.648 97.7964C223.144 95.201 220.364 93.5413 217.464 92.8171C214.563 92.093 211.525 92.204 208.548 92.4572C203.626 92.8761 198.491 93.7739 194.613 96.8496C194.086 97.2366 193.633 97.7157 193.273 98.2639C192.933 98.9153 192.692 99.6146 192.559 100.338C191.722 103.77 190.465 107.085 188.817 110.206C188.025 111.53 187.378 112.936 186.885 114.399C186.474 115.886 186.502 117.581 187.364 118.859C188.063 119.9 189.184 120.455 190.064 121.306C190.937 122.149 191.345 123.77 192.312 124.408C193.155 124.966 194.166 124.572 195.026 125.163C196.131 125.921 196.21 127.584 197.511 128.192Z" fill="#2F2E41"/>
<path d="M211.158 166.865L212.77 163.626C212.77 163.626 236.406 170.644 241.241 177.123C241.241 177.123 253.059 169.564 259.505 170.644L265.952 171.724L246.076 189.542L220.826 187.382L211.158 166.865Z" fill="#E4E4E4"/>
<path d="M210.083 163.626L188.058 194.4L219.753 210.06C219.753 210.06 222.716 211.679 224.994 210.06L246.075 200.34L265.952 171.724L246.075 181.983C246.075 181.983 243.927 177.663 239.629 179.823L210.083 163.626Z" fill="#137ECB"/>
<path d="M243.927 218.158L248.224 206.819C248.224 206.819 257.894 194.4 252.522 188.462C247.151 182.522 241.241 205.739 241.241 205.739L243.927 218.158Z" fill="#FFBFA1"/>
<path d="M194.342 216.349L203.719 208.707C203.719 208.707 218.283 202.841 216.601 194.995C214.918 187.148 198.217 204.252 198.217 204.252L194.342 216.349Z" fill="#FFBFA1"/>
<path opacity="0.1" d="M171.136 161.736H170.6C170.6 161.736 162.273 151.747 160.661 165.245C159.049 178.743 153.678 223.557 167.644 225.176C181.612 226.797 191.549 218.428 191.549 218.428C191.549 218.428 201.757 202.769 197.996 202.769C196.177 202.769 191.228 201.948 186.716 202.23C181.9 202.531 177.573 203.894 177.852 202.5C178.389 199.801 186.178 165.514 171.136 161.736Z" fill="black"/>
<path d="M170.331 151.207L168.182 150.127C168.182 150.127 159.586 151.747 157.974 165.245C156.363 178.743 150.991 223.557 164.959 225.176C178.925 226.797 197.728 223.018 197.728 223.018C197.728 223.018 201.488 202.5 197.728 202.5C193.967 202.5 174.629 205.2 175.165 202.5C175.702 199.801 185.372 154.986 170.331 151.207Z" fill="#575A89"/>
<path d="M236.136 211.949L242.061 202.823L245.806 217.889L236.136 222.208V211.949Z" fill="#575A89"/>
<path d="M114.448 81.8265C122.458 81.8265 128.952 75.2997 128.952 67.2486C128.952 59.1974 122.458 52.6704 114.448 52.6704C106.437 52.6704 99.9429 59.1974 99.9429 67.2486C99.9429 75.2997 106.437 81.8265 114.448 81.8265Z" fill="#E4E4E4"/>
<path d="M131.637 175.774H97.2563V210.328H131.637V175.774Z" fill="#E4E4E4"/>
<path d="M254.401 21.2935L263.104 36.4423L271.806 51.591H254.401H236.998L245.7 36.4423L254.401 21.2935Z" fill="#E4E4E4"/>
<path d="M406.02 112.125C405.812 118.588 404.246 123.768 401.322 127.666C398.397 131.564 394.923 133.513 390.899 133.513C387.622 133.513 384.749 131.606 382.282 127.791C379.812 123.976 378.579 118.108 378.579 110.186C378.579 108.435 378.62 106.767 378.704 105.183C378.787 103.599 378.889 102.098 379.014 100.68L381.193 80.1046H366.818C364.329 106.121 362.287 121.6 360.69 126.54C359.092 131.481 356.385 133.951 352.57 133.951C350.847 133.909 349.204 133.216 347.965 132.012C347.247 131.373 346.679 130.581 346.302 129.694C345.925 128.807 345.75 127.848 345.788 126.884C345.788 124.967 347.29 122.288 350.298 118.848C353.306 115.408 354.975 112.271 355.307 109.436L359.04 80.1046H353.005C351.303 80.1148 349.63 80.5328 348.121 81.324C346.733 81.9649 345.523 82.9428 344.605 84.1695L341.93 88.172H339.751C341.784 81.835 344.282 77.0717 347.249 73.8818C350.214 70.6922 353.627 69.0975 357.485 69.0975H405.024V80.1044H388.971C388.472 85.1078 388.089 90.1108 387.82 95.1139C387.549 100.117 387.415 105.141 387.415 110.186C387.415 113.605 388.203 116.378 389.78 118.504C391.355 120.63 393.326 121.693 395.691 121.693C397.143 121.693 398.667 121.099 400.265 119.911C401.023 119.376 401.656 118.683 402.125 117.879C402.592 117.075 402.88 116.178 402.97 115.252C403.095 114.335 403.189 113.616 403.251 113.094C403.312 112.573 403.344 112.25 403.344 112.125H406.02Z" fill="#137ECB"/>
<path opacity="0.1" d="M406.02 112.125C405.812 118.588 404.246 123.768 401.322 127.666C398.397 131.564 394.923 133.513 390.899 133.513C387.622 133.513 384.749 131.606 382.282 127.791C379.812 123.976 378.579 118.108 378.579 110.186C378.579 108.435 378.62 106.767 378.704 105.183C378.787 103.599 378.889 102.098 379.014 100.68L381.193 80.1046H366.818C364.329 106.121 362.287 121.6 360.69 126.54C359.092 131.481 356.385 133.951 352.57 133.951C350.847 133.909 349.204 133.216 347.965 132.012C347.247 131.373 346.679 130.581 346.302 129.694C345.925 128.807 345.75 127.848 345.788 126.884C345.788 124.967 347.29 122.288 350.298 118.848C353.306 115.408 354.975 112.271 355.307 109.436L359.04 80.1046H353.005C351.303 80.1148 349.63 80.5328 348.121 81.324C346.733 81.9649 345.523 82.9428 344.605 84.1695L341.93 88.172H339.751C341.784 81.835 344.282 77.0717 347.249 73.8818C350.214 70.6922 353.627 69.0975 357.485 69.0975H405.024V80.1044H388.971C388.472 85.1078 388.089 90.1108 387.82 95.1139C387.549 100.117 387.415 105.141 387.415 110.186C387.415 113.605 388.203 116.378 389.78 118.504C391.355 120.63 393.326 121.693 395.691 121.693C397.143 121.693 398.667 121.099 400.265 119.911C401.023 119.376 401.656 118.683 402.125 117.879C402.592 117.075 402.88 116.178 402.97 115.252C403.095 114.335 403.189 113.616 403.251 113.094C403.312 112.573 403.344 112.25 403.344 112.125H406.02Z" fill="black"/>
<path d="M406.02 110.171C405.812 116.634 404.246 121.814 401.322 125.712C398.397 129.61 394.923 131.559 390.899 131.559C387.622 131.559 384.749 129.652 382.282 125.837C379.812 122.022 378.579 116.154 378.579 108.232C378.579 106.481 378.62 104.813 378.704 103.229C378.787 101.645 378.889 100.144 379.014 98.7262L381.193 78.1507H366.818C364.329 104.167 362.287 119.646 360.69 124.586C359.092 129.527 356.385 131.997 352.57 131.997C350.847 131.955 349.204 131.263 347.965 130.059C347.247 129.419 346.679 128.627 346.302 127.74C345.925 126.854 345.75 125.894 345.788 124.93C345.788 123.013 347.29 120.334 350.298 116.894C353.306 113.454 354.975 110.317 355.307 107.482L359.04 78.1507H353.005C351.303 78.1608 349.63 78.5789 348.121 79.3701C346.733 80.011 345.523 80.9889 344.605 82.2156L341.93 86.2182H339.751C341.784 79.8812 344.282 75.1178 347.249 71.9279C350.214 68.7383 353.627 67.1436 357.485 67.1436H405.024V78.1507H388.971C388.472 83.1538 388.089 88.157 387.82 93.16C387.549 98.1632 387.415 103.187 387.415 108.232C387.415 111.651 388.203 114.424 389.78 116.55C391.355 118.676 393.326 119.739 395.691 119.739C397.143 119.739 398.667 119.145 400.265 117.957C401.023 117.422 401.656 116.729 402.125 115.925C402.592 115.121 402.88 114.225 402.97 113.298C403.095 112.381 403.189 111.662 403.251 111.14C403.312 110.619 403.344 110.296 403.344 110.171H406.02Z" fill="#137ECB"/>
</svg>
