<svg width="502" height="400" viewBox="0 0 502 400" fill="none" xmlns="http://www.w3.org/2000/svg">
<path d="M30.3623 378.459C30.3623 378.459 8.89356 377.163 11.423 392.212C11.423 392.212 10.915 394.868 13.3275 396.078C13.3275 396.078 13.3682 394.96 15.5318 395.341C16.3016 395.47 17.0842 395.508 17.8631 395.453C18.9172 395.382 19.9193 394.967 20.7174 394.274C20.7174 394.274 26.7512 391.781 29.1028 381.918C29.1028 381.918 30.8397 379.763 30.7686 379.211L27.1473 380.734C27.1473 380.734 28.3816 383.35 27.4115 385.519C27.4115 385.519 27.2895 380.83 26.5937 380.947C26.4515 380.972 24.7146 381.857 24.7146 381.857C24.7146 381.857 26.8427 386.427 25.2224 389.719C25.2224 389.719 25.8319 384.106 24.034 382.181L21.4945 383.676C21.4945 383.676 23.9882 388.379 22.297 392.212C22.297 392.212 22.7287 386.326 20.9612 384.035L18.6503 385.839C18.6503 385.839 20.9867 390.476 19.5594 393.656C19.5594 393.656 19.3765 386.804 18.1474 386.285C18.1474 386.285 16.1159 388.068 15.8162 388.825C15.8162 388.825 17.4212 392.188 16.4257 393.965C16.4257 393.965 15.8162 389.393 15.3185 389.393C15.3185 389.393 13.2869 392.415 13.0939 394.473C13.0939 394.473 13.1803 391.384 14.8258 389.084C13.6643 389.303 12.5923 389.857 11.7429 390.679C11.7429 390.679 12.0579 388.54 15.3235 388.352C15.3235 388.352 16.9895 386.063 17.4365 385.92C17.4365 385.92 14.1859 385.65 12.2152 386.525C12.2152 386.525 13.9473 384.493 18.0307 385.423L20.3162 383.558C20.3162 383.558 16.0346 382.973 14.2215 383.619C14.2215 383.619 16.3089 381.836 20.9307 383.137L23.4142 381.653C23.4142 381.653 19.7626 380.865 17.5888 381.146C17.5888 381.146 19.8845 379.906 24.1407 381.248L25.9183 380.45C25.9183 380.45 23.2417 379.941 22.4594 379.84C21.6774 379.739 21.6367 379.541 21.6367 379.541C23.3305 379.259 25.0694 379.451 26.6598 380.099C26.6598 380.099 30.4284 378.697 30.3623 378.459Z" fill="#137ECB"/>
<path opacity="0.1" d="M15.5723 399.958C23.9648 399.958 30.7684 398.806 30.7684 397.388C30.7684 395.968 23.9648 394.818 15.5723 394.818C7.17953 394.818 0.375977 395.968 0.375977 397.388C0.375977 398.806 7.17953 399.958 15.5723 399.958Z" fill="#137ECB"/>
<path d="M501.754 344.283C501.754 344.283 489.646 343.551 491.089 352.032C491.015 352.464 491.079 352.907 491.272 353.3C491.466 353.692 491.779 354.014 492.166 354.217C492.166 354.217 492.166 353.588 493.405 353.801C493.839 353.872 494.281 353.893 494.72 353.861C495.314 353.822 495.879 353.591 496.331 353.202C496.331 353.202 499.733 351.794 501.059 346.233C501.059 346.233 502.034 345.019 501.999 344.709L499.967 345.582C499.967 345.582 500.662 347.056 500.115 348.286C500.115 348.286 500.047 345.639 499.656 345.699C499.576 345.699 498.59 346.208 498.59 346.208C498.59 346.208 499.793 348.748 498.89 350.637C498.89 350.637 499.23 347.477 498.22 346.391L496.777 347.228C496.777 347.228 498.185 349.885 497.228 352.048C497.228 352.048 497.477 348.726 496.478 347.436L495.172 348.453C495.172 348.453 496.492 351.064 495.68 352.861C495.68 352.861 495.574 348.997 494.882 348.707C494.388 349.123 493.947 349.599 493.567 350.123C493.567 350.123 494.472 352.018 493.913 353.024C493.913 353.024 493.567 350.449 493.282 350.438C493.282 350.438 492.15 352.139 492.033 353.309C492.086 352.224 492.422 351.174 493.009 350.26C492.353 350.385 491.749 350.699 491.272 351.165C491.272 351.165 491.45 349.956 493.304 349.85C493.304 349.85 494.242 348.559 494.496 348.478C494.496 348.478 492.664 348.325 491.551 348.819C491.551 348.819 492.531 347.681 494.832 348.198L496.117 347.148C496.117 347.148 493.704 346.817 492.683 347.184C492.683 347.184 493.862 346.167 496.462 346.908L497.865 346.071C496.788 345.835 495.684 345.74 494.584 345.792C494.584 345.792 495.874 345.09 498.275 345.847L499.292 345.396C499.292 345.396 497.767 345.1 497.346 345.054C496.924 345.01 496.878 344.887 496.878 344.887C497.834 344.729 498.816 344.837 499.713 345.202C499.713 345.202 501.789 344.414 501.754 344.283Z" fill="#137ECB"/>
<path opacity="0.1" d="M493.414 356.401C498.148 356.401 501.983 355.752 501.983 354.954C501.983 354.154 498.148 353.506 493.414 353.506C488.683 353.506 484.847 354.154 484.847 354.954C484.847 355.752 488.683 356.401 493.414 356.401Z" fill="#137ECB"/>
<path d="M476.857 367.377C476.857 367.377 462.24 366.499 463.987 376.747C463.898 377.268 463.977 377.803 464.209 378.277C464.444 378.75 464.821 379.138 465.288 379.383C465.288 379.383 465.288 378.622 466.812 378.876C467.336 378.965 467.869 378.99 468.401 378.953C469.117 378.901 469.798 378.62 470.342 378.149C470.342 378.149 474.449 376.454 476.045 369.739C476.045 369.739 477.229 368.271 477.183 367.896L474.714 368.951C474.714 368.951 475.556 370.729 474.897 372.208C474.897 372.208 474.815 369.012 474.342 369.088C474.246 369.088 473.059 369.703 473.059 369.703C473.059 369.703 474.511 372.807 473.415 375.057C473.415 375.057 473.831 371.237 472.606 369.932L470.869 370.947C470.869 370.947 472.565 374.152 471.419 376.763C471.419 376.763 471.712 372.755 470.503 371.177L468.934 372.4C468.934 372.4 470.525 375.56 469.554 377.723C469.554 377.723 469.426 373.061 468.589 372.711C468.589 372.711 467.212 373.919 467.004 374.422C467.004 374.422 468.097 376.711 467.421 377.92C467.421 377.92 467.004 374.813 466.664 374.797C466.664 374.797 465.292 376.854 465.141 378.267C465.208 376.962 465.617 375.698 466.323 374.6C465.532 374.749 464.801 375.128 464.22 375.686C464.22 375.686 464.433 374.234 466.659 374.106C466.659 374.106 467.791 372.542 468.097 372.446C468.097 372.446 465.882 372.263 464.54 372.858C464.54 372.858 465.724 371.486 468.502 372.11L470.057 370.841C470.057 370.841 467.142 370.439 465.907 370.882C465.907 370.882 467.329 369.668 470.478 370.551L472.169 369.536C472.169 369.536 469.686 369.003 468.209 369.195C468.209 369.195 469.767 368.352 472.666 369.266L473.877 368.724C473.877 368.724 472.053 368.363 471.525 368.306C470.996 368.251 470.96 368.104 470.96 368.104C472.114 367.912 473.297 368.043 474.378 368.484C474.378 368.484 476.898 367.54 476.857 367.377Z" fill="#137ECB"/>
<path opacity="0.1" d="M466.787 382.01C472.5 382.01 477.131 381.226 477.131 380.263C477.131 379.298 472.5 378.516 466.787 378.516C461.073 378.516 456.441 379.298 456.441 380.263C456.441 381.226 461.073 382.01 466.787 382.01Z" fill="#137ECB"/>
<path opacity="0.1" d="M409.48 376.306C435.379 376.306 456.373 373.029 456.373 368.987C456.373 364.945 435.379 361.669 409.48 361.669C383.581 361.669 362.587 364.945 362.587 368.987C362.587 373.029 383.581 376.306 409.48 376.306Z" fill="#137ECB"/>
<path opacity="0.1" d="M261.087 395.351C290.191 395.351 313.782 392.984 313.782 390.065C313.782 387.145 290.191 384.777 261.087 384.777C231.986 384.777 208.395 387.145 208.395 390.065C208.395 392.984 231.986 395.351 261.087 395.351Z" fill="#137ECB"/>
<path opacity="0.1" d="M101.441 390.101C123.531 390.101 141.438 388.995 141.438 387.632C141.438 386.269 123.531 385.163 101.441 385.163C79.3515 385.163 61.4441 386.269 61.4441 387.632C61.4441 388.995 79.3515 390.101 101.441 390.101Z" fill="#137ECB"/>
<path opacity="0.1" d="M172.456 17.4374C187.292 4.23216 210.583 1.52517 231.778 2.5765C298.358 5.88283 358.458 38.0276 410.445 74.3878C429.268 87.5472 447.795 101.733 460.01 119.86C484.897 156.754 477.503 207.867 442.925 238.266C431.157 248.607 416.895 256.55 402.253 263.563C376.217 276.062 348.126 286.094 318.581 288.957C297.51 290.989 276.178 289.339 255.233 286.496C196.703 278.551 139.255 260.999 91.1055 230.982C69.9882 217.776 50.0785 201.422 41.3732 180.116C32.6678 158.81 38.2394 131.81 59.8047 119.199C68.7226 113.983 79.3889 111.627 89.8258 109.417C105.195 106.162 120.808 102.952 134.679 96.3288C149.001 89.4925 165.959 76.272 163.121 61.1418C160.083 44.9044 157.641 30.6428 172.456 17.4374Z" fill="#137ECB"/>
<path opacity="0.9" d="M295.392 199.024V102.047H308.598V73.0973H213.976V102.047H227.182V199.024C208.946 205.951 193.246 218.257 182.166 234.315C171.087 250.37 165.152 269.415 165.147 288.922C165.147 342.022 208.196 385.067 261.298 385.067C314.397 385.067 357.441 342.022 357.441 288.922C357.437 269.413 351.499 250.366 340.417 234.309C329.335 218.254 313.631 205.947 295.392 199.024Z" fill="#96B7FE"/>
<path opacity="0.1" d="M295.392 101.748H227.162V103.053H295.392V101.748Z" fill="black"/>
<path d="M207.501 286.343C207.501 286.343 265.402 285.326 294.352 270.837C323.3 256.346 339.843 269.282 338.289 278.074C336.734 286.865 328.471 303.916 295.386 306.008C262.303 308.1 207.501 286.343 207.501 286.343Z" fill="#137ECB"/>
<path opacity="0.1" d="M207.501 286.343C207.501 286.343 265.402 285.326 294.352 270.837C323.3 256.346 339.843 269.282 338.289 278.074C336.734 286.865 328.471 303.916 295.386 306.008C262.303 308.1 207.501 286.343 207.501 286.343Z" fill="black"/>
<path d="M182.706 277.047C182.706 277.047 176.519 362.857 257.655 364.405C338.792 365.955 338.295 278.064 338.295 278.064C338.295 278.064 308.327 310.624 237.498 283.746C237.498 283.767 200.796 273.944 182.706 277.047Z" fill="#137ECB"/>
<path opacity="0.1" d="M338.03 278.373C336.409 298.141 325.901 360.018 257.686 358.712C190.816 357.448 183.244 298.989 182.649 278.424C182.279 289.46 182.608 362.963 257.67 364.401C338.826 365.924 338.309 278.058 338.309 278.058C338.309 278.058 338.208 278.185 338.03 278.373Z" fill="black"/>
<path opacity="0.3" d="M258.148 250.551C263.963 250.551 268.677 245.838 268.677 240.022C268.677 234.208 263.963 229.494 258.148 229.494C252.334 229.494 247.62 234.208 247.62 240.022C247.62 245.838 252.334 250.551 258.148 250.551Z" fill="#137ECB"/>
<path opacity="0.3" d="M264.161 204.419C267.76 204.419 270.676 201.502 270.676 197.903C270.676 194.304 267.76 191.387 264.161 191.387C260.563 191.387 257.645 194.304 257.645 197.903C257.645 201.502 260.563 204.419 264.161 204.419Z" fill="#137ECB"/>
<path opacity="0.3" d="M249.62 166.809C253.219 166.809 256.136 163.892 256.136 160.293C256.136 156.694 253.219 153.777 249.62 153.777C246.02 153.777 243.104 156.694 243.104 160.293C243.104 163.892 246.02 166.809 249.62 166.809Z" fill="#137ECB"/>
<path opacity="0.2" d="M193.786 248.143C193.228 252.583 193.34 258.139 197.307 260.211C193.98 258.475 207.616 238.778 205.682 234.755C201.543 226.172 194.294 244.019 193.786 248.143Z" fill="white"/>
<path opacity="0.3" d="M244.354 53.7464C250.169 53.7464 254.883 49.0327 254.883 43.2177C254.883 37.4029 250.169 32.6891 244.354 32.6891C238.54 32.6891 233.826 37.4029 233.826 43.2177C233.826 49.0327 238.54 53.7464 244.354 53.7464Z" fill="#137ECB"/>
<path opacity="0.3" d="M275.94 32.994C280.262 32.994 283.766 29.4898 283.766 25.1673C283.766 20.8447 280.262 17.3407 275.94 17.3407C271.617 17.3407 268.112 20.8447 268.112 25.1673C268.112 29.4898 271.617 32.994 275.94 32.994Z" fill="#137ECB"/>
<path opacity="0.3" d="M253.379 8.1783C255.625 8.1783 257.447 6.35699 257.447 4.11017C257.447 1.86336 255.625 0.0418701 253.379 0.0418701C251.132 0.0418701 249.31 1.86336 249.31 4.11017C249.31 6.35699 251.132 8.1783 253.379 8.1783Z" fill="#137ECB"/>
<path opacity="0.9" d="M144.522 133.71H59.4338V158.947H72.3998V355.838C72.3483 359.755 73.077 363.644 74.5398 367.277C76.0026 370.912 78.1746 374.22 80.9261 377.007C83.6793 379.795 86.9568 382.01 90.572 383.521C94.1855 385.032 98.0656 385.81 101.983 385.81C105.9 385.81 109.779 385.032 113.394 383.521C117.009 382.01 120.287 379.795 123.038 377.007C125.791 374.22 127.962 370.912 129.426 367.277C130.889 363.644 131.616 359.755 131.564 355.838V158.947H144.522V133.71Z" fill="#96B7FE"/>
<path d="M92.1116 203.555C92.1116 203.555 113.17 196.033 119.03 201.381C119.03 201.381 110.502 213.917 102.652 213.414C94.799 212.911 92.1116 203.555 92.1116 203.555Z" fill="#137ECB"/>
<path opacity="0.1" d="M92.1116 203.555C92.1116 203.555 113.17 196.033 119.03 201.381C119.03 201.381 110.502 213.917 102.652 213.414C94.799 212.911 92.1116 203.555 92.1116 203.555Z" fill="black"/>
<path d="M119.019 201.402V344.302C119.019 346.673 118.552 349.021 117.645 351.211C116.739 353.401 115.409 355.39 113.733 357.066C112.057 358.744 110.067 360.073 107.877 360.98C105.687 361.886 103.339 362.354 100.97 362.354C96.1815 362.354 91.5904 360.452 88.2045 357.066C84.8203 353.682 82.9185 349.091 82.9185 344.302V201.402C82.9185 201.402 91.6082 199.06 99.7949 204.079C107.983 209.097 119.019 201.402 119.019 201.402Z" fill="#137ECB"/>
<path opacity="0.1" d="M131.556 158.789H72.3914V159.953H131.556V158.789Z" fill="black"/>
<path opacity="0.1" d="M100.97 353.664C98.5987 353.664 96.2508 353.196 94.0592 352.288C91.8695 351.382 89.8788 350.05 88.2027 348.374C86.5266 346.698 85.1971 344.708 84.2906 342.516C83.3841 340.326 82.9185 337.978 82.9185 335.607V344.633C82.9185 349.42 84.8203 354.011 88.2045 357.397C91.5904 360.782 96.1815 362.684 100.97 362.684C105.756 362.684 110.347 360.782 113.733 357.397C117.118 354.011 119.019 349.42 119.019 344.633V335.607C119.019 337.978 118.554 340.326 117.647 342.516C116.741 344.708 115.411 346.698 113.735 348.374C112.059 350.05 110.068 351.382 107.879 352.288C105.687 353.196 103.339 353.664 100.97 353.664Z" fill="black"/>
<path opacity="0.3" d="M100.975 187.368C103.005 187.368 104.651 185.722 104.651 183.69C104.651 181.661 103.005 180.015 100.975 180.015C98.9437 180.015 97.2979 181.661 97.2979 183.69C97.2979 185.722 98.9437 187.368 100.975 187.368Z" fill="#137ECB"/>
<path opacity="0.3" d="M113.007 172.994C114.301 172.994 115.347 171.947 115.347 170.653C115.347 169.361 114.301 168.312 113.007 168.312C111.714 168.312 110.666 169.361 110.666 170.653C110.666 171.947 111.714 172.994 113.007 172.994Z" fill="#137ECB"/>
<path opacity="0.3" d="M96.6278 168.318C97.92 168.318 98.9686 167.269 98.9686 165.977C98.9686 164.683 97.92 163.634 96.6278 163.634C95.3338 163.634 94.2852 164.683 94.2852 165.977C94.2852 167.269 95.3338 168.318 96.6278 168.318Z" fill="#137ECB"/>
<path opacity="0.2" d="M76.9718 230.596C76.4119 235.034 76.5239 240.591 80.4911 242.663C77.1584 240.927 90.8018 221.235 88.8662 217.207C84.716 208.635 77.4784 226.476 76.9718 230.596Z" fill="white"/>
<path opacity="0.3" d="M108.604 117.919C113.538 117.919 117.537 113.919 117.537 108.985C117.537 104.051 113.538 100.051 108.604 100.051C103.67 100.051 99.6689 104.051 99.6689 108.985C99.6689 113.919 103.67 117.919 108.604 117.919Z" fill="#137ECB"/>
<path opacity="0.3" d="M81.8006 100.311C85.471 100.311 88.4446 97.3365 88.4446 93.6676C88.4446 89.9985 85.471 87.0242 81.8006 87.0242C78.132 87.0242 75.1584 89.9985 75.1584 93.6676C75.1584 97.3365 78.132 100.311 81.8006 100.311Z" fill="#137ECB"/>
<path opacity="0.3" d="M100.943 79.2532C102.85 79.2532 104.397 77.7069 104.397 75.7994C104.397 73.892 102.85 72.3457 100.943 72.3457C99.0361 72.3457 97.4897 73.892 97.4897 75.7994C97.4897 77.7069 99.0361 79.2532 100.943 79.2532Z" fill="#137ECB"/>
<path d="M455.379 229.265C455.379 229.265 447.582 190.493 450.564 185.667C450.564 185.667 450.671 181.183 450.493 175.468C450.493 175.25 450.493 175.031 450.493 174.809C451.014 175.164 451.562 175.484 452.129 175.763C454.876 177.18 458.035 177.589 461.051 176.917L458.68 174.284C458.117 173.655 457.523 172.98 457.4 172.146C457.368 171.346 457.543 170.55 457.909 169.836C460.148 164.173 460.285 157.047 455.948 152.725C452.301 149.088 451.407 144.396 447.466 141.079C444.571 138.646 442.98 135.081 441.478 131.642C440.208 128.727 438.938 125.792 438.203 122.703C437.634 120.291 437.41 117.797 436.628 115.441C435.846 113.084 434.392 110.793 432.111 109.742C431.267 109.447 430.446 109.083 429.659 108.655C428.685 108 428.1 106.933 427.4 106.004C423.843 101.275 411.858 104.059 406.19 105.978C404.651 106.461 403.225 107.251 401.999 108.3L402.05 108.213L402.192 108.005C401.574 108.506 401.039 109.103 400.607 109.772C399.78 111.083 399.434 112.622 398.748 114.003C397.916 115.679 393.293 120.357 395.28 122.241C395.415 122.367 395.572 122.47 395.742 122.546C396.483 122.849 397.297 122.93 398.083 122.78C398.053 122.846 398.023 122.912 397.998 122.978C397.322 124.641 396.977 126.419 396.981 128.214C397.015 131.971 398.54 135.562 401.22 138.195C403.899 140.829 407.516 142.29 411.273 142.257C412.759 142.26 414.234 142.034 415.651 141.587C415.686 141.765 415.717 141.942 415.749 142.12C415.749 142.196 415.749 142.268 415.784 142.339L415.534 142.689L415.495 142.623L408.084 152.984C406.951 153.777 400.424 158.499 400.074 162.04C399.688 165.915 399.302 170.456 399.302 170.456L399.251 171.426C398.927 171.697 398.55 171.892 398.143 172.004C397.736 172.114 397.31 172.136 396.894 172.066C394.583 171.684 394.583 180.578 394.583 180.578C394.583 180.578 393.06 181.995 391.988 180.767C390.917 179.537 388.138 183.696 388.138 183.696L370.622 184.453H370.22L369.275 181.527C369.172 181.225 368.955 180.975 368.671 180.829C368.388 180.683 368.057 180.653 367.752 180.745C367.677 180.767 367.606 180.795 367.538 180.832L367.478 180.873C367.433 180.896 367.393 180.927 367.355 180.959C367.332 180.975 367.309 180.994 367.289 181.016C367.256 181.044 367.222 181.076 367.193 181.112C367.176 181.133 367.158 181.154 367.142 181.177L367.112 181.207C367.003 181.359 366.93 181.533 366.9 181.716C366.87 181.899 366.884 182.087 366.939 182.265L367.752 184.773C364.374 185.454 360.916 187.368 363.735 192.65L349.451 190.015L354.074 193.889L377.945 198.816C377.63 199.385 377.838 200.203 378.823 201.356C383.064 206.344 390.815 207.694 393.929 208.05C394.747 209.884 395.769 211.621 396.976 213.226L396.702 218.194C396.702 218.194 388.819 256.077 387.372 258.002C388.087 257.17 388.741 256.287 389.328 255.361C387.036 263.146 383.837 273.801 382.998 275.398C381.647 277.936 380.398 288.257 381.937 288.922C382.421 289.124 383.755 289.028 385.68 288.881V289.734L385.595 322.113C385.595 322.113 385.981 341.977 384.918 343.867C383.857 345.756 383.572 349.727 383.572 349.727C383.572 349.727 379.317 357.563 375.954 360.713L375.878 360.779L375.771 360.038C375.771 360.038 371.708 365.148 362.78 364.863C362.78 364.863 357.391 368.361 365.381 368.55C373.368 368.738 383.567 368.265 383.567 368.265C383.567 368.265 390.678 357.391 396.656 358.808V367.037H398.485V358.737C399.333 358.178 400.058 357.453 400.616 356.605C401.174 355.758 401.556 354.805 401.736 353.806C401.892 352.779 401.78 351.728 401.407 350.758C401.034 349.787 400.413 348.931 399.606 348.275C399.244 347.946 398.954 347.548 398.753 347.102C398.552 346.656 398.446 346.174 398.439 345.685L398.373 345.74C398.373 345.578 398.332 345.41 398.307 345.232C397.799 340.977 397.134 332.219 399.45 325.73C402.624 316.836 403.589 304.453 401.277 297.073C400.534 294.718 399.923 292.322 399.45 289.898C399.393 289.588 399.338 289.299 399.292 289.023C400.874 289.24 402.439 289.56 403.98 289.983C409.343 291.456 421.06 291.73 431.066 291.655C431.091 291.929 431.121 292.214 431.152 292.503C431.335 294.499 431.713 296.472 432.28 298.394C433.53 302.183 434.107 318.821 434.107 318.821C434.107 318.821 435.728 332.509 434.845 338.087C434.337 341.185 433.91 344.293 433.631 347.416V347.477C433.631 347.477 430.979 355.04 429.06 359.16C429.008 359.266 428.964 359.368 428.912 359.469C428.393 359.517 427.881 359.627 427.389 359.799C427.389 359.799 424.794 365 422.194 365.853C419.593 366.706 420.461 369.54 426.333 368.5C432.204 367.458 441.061 366.61 441.061 366.61L441.446 361.312L443.25 359.056L442.794 364.339L444.719 363.964L444.464 357.533L447.415 353.842C447.415 353.842 450.97 350.672 445.684 344.436V344.567C445.627 344.476 445.572 344.384 445.511 344.299V344.267C444.637 342.907 443.937 340.372 445.216 335.872C447.527 327.746 448.872 320.366 448.872 320.366C448.872 320.366 454.038 300.603 447.827 291.248H448.106C447.468 289.931 447.017 288.534 446.764 287.093C446.734 286.92 446.709 286.743 446.679 286.586C451.249 286.321 455.785 285.49 459.457 283.702C459.416 283.645 457.207 236.735 455.379 229.265ZM397.057 196.557V196.648L396.108 196.694L397.057 196.557ZM393.823 197.003C393.666 197.037 393.52 197.106 393.396 197.206C392.991 197.782 392.735 198.448 392.653 199.147L391.181 198.811C391.181 198.811 390.165 198.592 388.641 198.349L387.936 197.643C389.896 197.46 391.907 197.241 393.823 197.003Z" fill="url(#paint0_linear)"/>
<path d="M442.554 357.58L441.99 364.273L443.874 363.893L443.59 356.639L442.554 357.58Z" fill="#1D2366"/>
<path d="M399.581 325.821C397.312 332.287 397.962 341.018 398.47 345.259C398.657 346.828 398.831 347.797 398.831 347.797C398.831 347.797 395.438 355.528 395.154 355.813C394.869 356.097 385.158 362.018 385.158 362.018L378.373 365.974C378.373 365.974 371.491 362.958 374.817 361.911C375.49 361.641 376.096 361.227 376.594 360.699C379.886 357.56 384.056 349.754 384.056 349.754C384.056 349.754 384.335 345.797 385.371 343.911C386.407 342.027 386.032 322.236 386.032 322.236L386.117 289.964V285.758L399.028 285.854C399.112 287.283 399.299 288.703 399.587 290.106C400.052 292.521 400.653 294.908 401.385 297.256C403.63 304.627 402.69 316.959 399.581 325.821Z" fill="#FFB0B1"/>
<path opacity="0.1" d="M398.826 347.797C398.826 347.797 395.433 355.527 395.148 355.813C394.864 356.097 385.158 362.018 385.158 362.018L378.373 365.974C378.373 365.974 371.491 362.958 374.817 361.911C375.49 361.641 376.096 361.227 376.594 360.697L376.889 362.761L379.155 362.663L398.47 345.259C398.653 346.823 398.826 347.797 398.826 347.797Z" fill="black"/>
<path d="M398.591 345.705L379.129 363.237L376.864 363.329L376.397 360.032C376.397 360.032 372.435 365.112 363.669 364.837C363.669 364.837 358.392 368.326 366.209 368.514C374.024 368.702 384.025 368.23 384.025 368.23C384.025 368.23 390.998 357.391 396.839 358.808V367.005H398.632V358.712C399.466 358.15 400.178 357.425 400.724 356.581C401.27 355.738 401.641 354.791 401.812 353.801C401.968 352.78 401.858 351.735 401.494 350.77C401.129 349.803 400.521 348.948 399.729 348.285C399.373 347.955 399.089 347.557 398.893 347.112C398.698 346.668 398.595 346.19 398.591 345.705Z" fill="#1D2366"/>
<path d="M444.347 335.902C443.094 340.387 443.778 342.911 444.633 344.267V344.299C445.742 345.977 446.514 347.855 446.903 349.828L446.985 350.255L438.126 363.166L433.322 365.05C433.322 365.05 425.592 362.414 427.003 361.657C427.359 361.47 427.913 360.495 428.526 359.119C430.421 355.056 433.021 347.507 433.021 347.507V347.441C433.292 344.329 433.727 341.231 434.211 338.142C435.074 332.591 433.489 318.949 433.489 318.949C433.489 318.949 432.925 302.366 431.696 298.593C431.145 296.675 430.775 294.709 430.594 292.722C430.339 290.349 430.284 288.414 430.284 288.414C430.284 288.414 435.364 281.345 444.704 288.979C445.447 289.59 446.101 290.303 446.649 291.096C453.094 300.239 447.909 320.457 447.909 320.457C447.909 320.457 446.608 327.801 444.347 335.902Z" fill="#FFB0B1"/>
<path opacity="0.1" d="M446.985 350.23L438.126 363.141L433.322 365.025C433.322 365.025 425.592 362.389 427.003 361.632C427.359 361.444 427.913 360.47 428.526 359.092C431.799 359.092 433.494 362.181 433.494 362.181L437.639 361.525C437.639 361.525 443.108 350.779 444.333 350.123C445.558 349.467 444.521 345.218 444.521 345.218V344.135L444.617 344.253V344.283C445.733 345.964 446.51 347.848 446.903 349.828L446.985 350.23Z" fill="black"/>
<path d="M433.788 362.48C433.788 362.48 431.431 358.148 426.911 359.748C426.911 359.748 424.373 364.934 421.833 365.782C419.293 366.63 420.136 369.454 425.896 368.418C431.655 367.382 440.314 366.534 440.314 366.534L440.691 361.257L446.532 353.811C446.532 353.811 450.021 350.651 444.834 344.436V345.516C444.834 345.516 445.851 349.757 444.648 350.418C443.443 351.078 437.958 361.82 437.958 361.82L433.788 362.48Z" fill="#1D2366"/>
<path opacity="0.1" d="M399.013 285.859C399.096 287.288 399.283 288.708 399.571 290.111C394.253 289.329 389.322 289.72 386.091 289.969V285.763L399.013 285.859Z" fill="black"/>
<path opacity="0.1" d="M447.171 292.269C447.171 292.269 439.614 292.635 430.613 292.711C430.359 290.338 430.304 288.405 430.304 288.405C430.304 288.405 435.382 281.334 444.722 288.968C445.465 289.581 446.121 290.294 446.668 291.087C446.814 291.488 446.983 291.883 447.171 292.269Z" fill="black"/>
<path d="M452.148 340.331C452.148 340.331 424.655 348.234 414.565 345.41C404.473 342.587 382.298 345.308 380.789 344.649C379.282 343.988 386.564 286.545 387.86 284C389.155 281.457 396.437 255.727 396.437 255.727L403.412 219.345L410.765 217.314L411.273 217.171L424.078 213.617L433.468 211.027C433.468 211.027 452.129 283.879 450.524 289.242C449.943 291.3 449.85 293.465 450.254 295.566C450.506 297.013 451.51 339.009 452.148 340.331Z" fill="#1D2366"/>
<path d="M374.699 186.145C374.699 186.145 368.098 193.214 373.094 197.17C378.092 201.127 381.389 197.552 381.389 197.552L374.699 186.145Z" fill="#C7DAF5"/>
<path opacity="0.1" d="M374.699 186.145C374.699 186.145 368.098 193.214 373.094 197.17C378.092 201.127 381.389 197.552 381.389 197.552L374.699 186.145Z" fill="black"/>
<path d="M428.089 139.591C428.089 139.591 427.318 140.323 426.148 141.414C424.488 142.964 422.03 145.234 419.846 147.138C416.799 149.769 414.336 151.71 415.224 150.048C416.113 148.388 415.946 145.534 415.503 142.847L415.413 142.313C415.043 140.34 414.554 138.391 413.95 136.478C413.95 136.478 418.831 130.17 421.532 127.681C422.547 126.752 423.244 126.355 423.28 127.006C423.329 127.889 423.996 129.819 424.803 131.912C424.833 131.973 424.86 132.039 424.885 132.1C425.432 133.507 426.047 134.974 426.591 136.229C427.419 138.154 428.089 139.591 428.089 139.591Z" fill="#FFB0B1"/>
<path opacity="0.1" d="M424.881 132.1C424.422 134.567 423.308 136.866 421.657 138.757C420.005 140.647 417.878 142.06 415.494 142.847C415.121 140.691 414.602 138.563 413.941 136.478C413.941 136.478 423.128 124.603 423.271 127.005C423.358 127.92 424.037 129.941 424.881 132.1Z" fill="black"/>
<path opacity="0.1" d="M414.59 146.021L415.777 144.35C415.777 144.35 416.564 149.156 419.465 147.037C422.366 144.919 422.512 162.986 422.512 162.986L419.394 209.499L396.915 208.151L397.55 185.678L400.09 174.366L406.382 157.895L410.15 152.456L414.59 146.021Z" fill="black"/>
<path d="M422.503 163.27L419.689 205.323L419.394 209.778L406.86 209.031L406.352 209.001L396.899 208.436L397.534 185.957L400.074 174.651L406.368 158.179L410.152 152.735L414.606 146.306L415.793 144.63C415.793 144.63 416.581 149.44 419.481 147.316L419.536 147.276C422.366 145.458 422.503 163.27 422.503 163.27Z" fill="#1D2366"/>
<path d="M400.426 170.689C400.426 170.689 399.297 173.046 397.033 172.671C394.766 172.294 394.772 181.153 394.772 181.153C394.772 181.153 393.248 182.564 392.232 181.339C391.217 180.116 388.464 184.261 388.464 184.261L371.312 185.017C371.312 185.017 378.931 188.502 377.437 199.06C377.437 199.06 403.341 197.455 404.204 194.997C405.066 192.539 400.426 170.689 400.426 170.689Z" fill="white"/>
<path opacity="0.03" d="M400.426 170.689C400.426 170.689 399.297 173.046 397.033 172.671C394.766 172.294 394.772 181.153 394.772 181.153C394.772 181.153 393.248 182.564 392.232 181.339C391.217 180.116 388.464 184.261 388.464 184.261L371.312 185.017C371.312 185.017 378.931 188.502 377.437 199.06C377.437 199.06 403.341 197.455 404.204 194.997C405.066 192.539 400.426 170.689 400.426 170.689Z" fill="black"/>
<path d="M350.569 190.573L355.094 194.439L392.322 202.259L387.701 197.551L350.569 190.573Z" fill="white"/>
<path d="M414.655 147.504C414.04 148.429 412.274 153.285 410.789 157.504C409.561 161.02 408.53 164.107 408.53 164.107C408.53 164.107 406.127 179.755 404.903 182.58C403.68 185.402 404.339 196.445 404.339 196.445L399.77 223.682C399.77 223.682 397.697 237.725 394.496 246.111C391.357 254.344 387.802 258.221 387.706 258.336C389.123 256.422 396.848 218.665 396.848 218.665L399.387 171.066C399.387 171.066 399.764 166.546 400.145 162.68C400.525 158.814 408.154 153.537 408.154 153.537L415.528 143.05C416.285 144.081 415.788 145.808 414.655 147.504Z" fill="white"/>
<path d="M395.422 208.67C395.422 208.67 384.583 208.203 379.306 201.884C374.029 195.565 391.466 199.344 391.466 199.344L395.986 200.361L395.422 208.67Z" fill="#FFB0B1"/>
<path opacity="0.1" d="M446.135 280.959C445.554 283.015 445.462 285.182 445.865 287.281C434.022 288.124 421.349 284.916 421.349 284.916C418.992 287.084 412.771 290.289 412.771 290.289L409.378 248.249C407.215 242.592 406.366 212.906 406.366 212.906C406.366 212.906 406.559 211.351 406.874 209.026C406.874 208.969 406.874 208.908 406.901 208.851C407.749 202.351 409.439 190.146 410.242 188.497C411.374 186.236 406.759 180.207 406.759 180.207L408.856 162.289L409.11 160.129C413.543 158.149 416.936 151.836 416.936 151.836L419.536 147.265C422.375 145.447 422.513 163.259 422.513 163.259L419.698 205.313L429.09 202.721C429.09 202.721 447.735 275.584 446.135 280.959Z" fill="black"/>
<path d="M458.294 283.879C445.383 290.289 421.912 284.352 421.912 284.352C419.557 286.521 413.335 289.725 413.335 289.725L409.942 247.686C407.778 242.034 406.931 212.348 406.931 212.348C406.931 212.348 409.663 190.198 410.791 187.939C411.12 187.277 410.964 186.298 410.573 185.24C408.646 180.205 407.937 174.786 408.505 169.425L409.408 161.731L409.663 159.571C414.092 157.591 417.485 151.272 417.485 151.272L419.847 147.139L424.195 139.52L426.251 135.914L426.596 136.229L429.267 138.646C429.267 138.646 430.4 139.581 432.097 141.018C435.794 144.132 442.184 149.618 445.474 152.97C448.374 155.931 449.288 167.424 449.537 176.078C449.715 181.773 449.608 186.236 449.608 186.236C446.684 191.04 454.316 229.686 454.316 229.686C456.126 237.132 458.294 283.879 458.294 283.879Z" fill="white"/>
<path opacity="0.03" d="M433.514 151.182C433.514 151.182 424.65 168.053 425.692 174.459C426.733 180.863 429.648 188.125 428.232 189.823C427.746 190.464 427.121 190.985 426.401 191.344C425.681 191.705 424.887 191.891 424.081 191.893C422.67 191.991 418.897 194.627 418.897 194.911C418.897 195.196 415.413 195.196 412.294 196.516C409.176 197.837 404.564 198.589 404.564 198.589C404.564 198.589 395.609 198.304 394.761 199.152C393.914 200 393.066 205.089 394.857 209.141C396.651 213.195 398.627 216.212 400.134 216.761C401.643 217.308 411.161 214.125 418.886 213.368C426.611 212.611 435.037 206.505 435.037 206.505C435.037 206.505 444.271 203.205 445.876 197.643C447.481 192.082 443.896 161.548 443.896 161.548C443.896 161.548 441.132 147.316 433.514 151.182Z" fill="black"/>
<path opacity="0.03" d="M432.376 149.769C432.376 149.769 423.519 166.636 424.556 173.046C425.592 179.457 428.512 186.714 427.094 188.409C426.61 189.053 425.983 189.574 425.263 189.933C424.543 190.294 423.75 190.48 422.945 190.482C421.532 190.578 417.764 193.216 417.764 193.5C417.764 193.784 414.275 193.779 411.161 195.1C408.049 196.42 403.431 197.17 403.431 197.17C403.431 197.17 394.478 196.891 393.629 197.741C392.781 198.589 391.933 203.677 393.726 207.73C395.518 211.784 397.495 214.8 399.004 215.348C400.511 215.897 410.029 212.708 417.759 211.957C425.489 211.205 433.885 205.08 433.885 205.08C433.885 205.08 443.119 201.783 444.724 196.221C446.329 190.66 442.742 160.126 442.742 160.126C442.742 160.126 440.01 145.904 432.376 149.769Z" fill="black"/>
<path d="M433.224 150.332C433.224 150.332 424.37 167.205 425.387 173.59C426.402 179.974 429.344 187.256 427.927 188.953C427.442 189.597 426.816 190.118 426.096 190.478C425.377 190.838 424.582 191.026 423.777 191.026C422.366 191.122 418.596 193.758 418.596 194.042C418.596 194.327 415.107 194.327 411.994 195.647C408.88 196.968 404.264 197.72 404.264 197.72C404.264 197.72 395.31 197.435 394.462 198.283C393.612 199.131 392.765 204.221 394.558 208.274C396.351 212.326 398.326 215.343 399.835 215.892C401.342 216.441 410.86 213.256 418.592 212.499C426.322 211.742 434.706 205.622 434.706 205.622C434.706 205.622 443.94 202.321 445.545 196.76C447.15 191.198 443.565 160.664 443.565 160.664C443.565 160.664 440.858 146.468 433.224 150.332Z" fill="white"/>
<path opacity="0.1" d="M433.036 195.571C433.036 195.571 425.967 194.159 428.42 196.516C430.873 198.873 430.867 200.946 433.884 200.848C436.902 200.752 433.036 195.571 433.036 195.571Z" fill="black"/>
<path opacity="0.1" d="M445.007 246.371C445.007 246.371 441.802 248.539 447.929 253.532C454.054 258.525 445.007 246.371 445.007 246.371Z" fill="black"/>
<path opacity="0.1" d="M438.876 264.182C438.876 264.467 437.749 274.55 441.99 277.093C446.231 279.638 438.876 264.182 438.876 264.182Z" fill="black"/>
<path d="M371.585 185.008C368.173 185.123 360.782 186.17 364.613 193.312C368 199.629 373.688 195.409 376.873 192.199C376.096 189.213 374.203 186.639 371.585 185.008Z" fill="#FFB0B1"/>
<path d="M376.928 192.144C376.98 192.098 377.026 192.046 377.071 192.002C377.026 192.046 376.98 192.098 376.928 192.144Z" fill="#FFB0B1"/>
<path opacity="0.1" d="M432.097 141.298C428.471 143.776 425.428 145.869 424.838 146.306C423.208 147.504 420.1 154.575 418.12 158.179C416.525 161.085 411.36 161.832 409.408 162.015L409.643 159.877C414.072 157.9 417.464 151.583 417.464 151.583L426.23 136.224L429.248 138.956C429.248 138.956 430.4 139.865 432.097 141.298Z" fill="black"/>
<path d="M432.097 141.018C428.471 143.492 425.428 145.589 424.838 146.021C423.208 147.225 420.1 154.29 418.12 157.895C416.525 160.801 411.36 161.548 409.408 161.731L409.663 159.571C414.092 157.591 417.485 151.272 417.485 151.272L426.251 135.914L429.267 138.646C429.267 138.646 430.4 139.561 432.097 141.018Z" fill="#DCE7FF"/>
<path d="M425.118 128.986C425.121 129.97 425.018 130.951 424.808 131.912C424.431 133.708 423.699 135.41 422.654 136.919C420.758 139.679 417.935 141.666 414.697 142.522C411.46 143.377 408.024 143.044 405.011 141.583C401.999 140.121 399.61 137.628 398.277 134.556C396.946 131.484 396.759 128.036 397.753 124.838C398.746 121.641 400.852 118.905 403.689 117.127C406.528 115.349 409.908 114.648 413.218 115.15C416.529 115.651 419.551 117.323 421.733 119.862C423.916 122.401 425.118 125.638 425.118 128.986Z" fill="#FFB0B1"/>
<path opacity="0.1" d="M449.553 176.078C447.635 174.898 446.075 173.22 445.038 171.222C444.251 169.663 443.727 167.87 442.376 166.759C441.167 165.772 439.532 165.529 438.034 165.088C433.071 163.62 428.892 159.084 428.75 153.914C428.679 151.48 429.434 149.049 429.09 146.641C428.894 145.274 428.35 143.982 427.51 142.887C427.099 142.36 426.644 141.869 426.15 141.419C425.489 140.795 424.794 140.19 424.193 139.525C423.805 139.117 423.464 138.665 423.178 138.179C422.954 137.781 422.773 137.36 422.634 136.925C421.71 134.04 422.549 130.606 421.513 127.686C421.513 127.635 421.477 127.579 421.456 127.529C421.059 126.487 420.263 125.451 419.161 125.37C418.059 125.289 417.098 126.208 416.042 126.624C413.827 127.483 411.435 126.02 409.592 124.527C407.748 123.034 405.665 121.327 403.314 121.662C401.766 121.881 400.536 122.942 399.108 123.491C398.778 123.612 398.438 123.707 398.094 123.775C399.306 120.76 401.529 118.26 404.384 116.705C407.238 115.151 410.544 114.638 413.736 115.254C416.927 115.871 419.805 117.58 421.873 120.086C423.944 122.592 425.076 125.741 425.078 128.991C425.08 129.975 424.977 130.956 424.767 131.917C424.797 131.978 424.824 132.044 424.849 132.105C425.398 133.512 426.011 134.979 426.555 136.234L429.227 138.651C429.227 138.651 430.359 139.586 432.056 141.023C435.753 144.137 442.143 149.621 445.433 152.973C448.375 155.929 449.288 167.424 449.553 176.078Z" fill="black"/>
<path d="M398.977 114.872C399.653 113.495 399.992 111.956 400.796 110.656C401.979 108.751 404.05 107.558 406.169 106.826C411.714 104.917 423.438 102.139 426.936 106.826C427.627 107.756 428.196 108.823 429.151 109.478C429.924 109.898 430.725 110.258 431.554 110.555C433.788 111.606 435.215 113.886 435.978 116.233C436.738 118.579 436.962 121.068 437.501 123.475C438.212 126.553 439.467 129.474 440.711 132.379C442.179 135.807 443.757 139.357 446.573 141.785C450.437 145.091 451.306 149.769 454.877 153.391C459.127 157.698 458.99 164.802 456.802 170.44C456.437 171.153 456.263 171.947 456.293 172.747C456.499 173.563 456.935 174.302 457.548 174.88L459.868 177.5C457.097 178.099 454.205 177.777 451.629 176.586C449.056 175.395 446.941 173.398 445.602 170.897C444.81 169.338 444.287 167.545 442.936 166.439C441.726 165.447 440.096 165.209 438.592 164.763C433.631 163.295 429.451 158.759 429.309 153.588C429.238 151.16 429.995 148.724 429.654 146.315C429.449 144.967 428.909 143.691 428.079 142.608C426.774 140.911 424.819 139.758 423.761 137.9C421.975 134.746 423.331 130.642 422.041 127.234C421.645 126.218 420.852 125.157 419.745 125.075C418.637 124.994 417.683 125.918 416.627 126.33C414.412 127.188 412.025 125.725 410.18 124.232C408.337 122.739 406.25 121.038 403.904 121.373C402.349 121.591 401.126 122.648 399.694 123.196C398.636 123.602 396.494 123.968 395.565 123.074C393.618 121.205 398.144 116.543 398.977 114.872Z" fill="#591D4B"/>
<path opacity="0.1" d="M446.921 169.338C446.133 167.779 445.611 165.986 444.26 164.873C443.051 163.883 441.416 163.645 439.918 163.202C434.955 161.734 430.775 157.2 430.632 152.03C430.556 149.596 431.318 147.164 430.974 144.756C430.778 143.39 430.234 142.097 429.394 141.003C428.094 139.307 426.134 138.149 425.082 136.29C423.288 133.136 424.65 129.032 423.359 125.624C422.963 124.608 422.172 123.547 421.065 123.465C419.957 123.384 419.003 124.303 417.945 124.715C415.731 125.578 413.338 124.115 411.5 122.622C409.663 121.129 407.569 119.428 405.217 119.758C403.694 119.976 402.444 121.032 401.012 121.586C399.956 121.992 397.813 122.358 396.883 121.464C394.939 119.585 399.464 114.922 400.281 113.257C400.957 111.88 401.296 110.341 402.1 109.041L402.237 108.828C401.639 109.334 401.126 109.93 400.713 110.595C399.899 111.896 399.565 113.434 398.895 114.811C398.077 116.482 393.552 121.144 395.497 123.018C396.421 123.912 398.545 123.526 399.626 123.14C401.053 122.592 402.277 121.535 403.831 121.312C406.177 120.982 408.266 122.683 410.109 124.176C411.952 125.67 414.344 127.132 416.554 126.274C417.615 125.863 418.541 124.933 419.673 125.02C420.805 125.106 421.576 126.137 421.973 127.178C423.263 130.566 421.902 134.669 423.69 137.844C424.746 139.698 426.706 140.856 428.007 142.552C428.848 143.646 429.392 144.939 429.587 146.305C429.932 148.713 429.17 151.146 429.246 153.578C429.404 158.754 433.569 163.29 438.531 164.752C440.03 165.193 441.665 165.433 442.873 166.428C444.224 167.536 444.741 169.327 445.534 170.888C446.873 173.389 448.989 175.385 451.563 176.576C454.137 177.768 457.029 178.088 459.801 177.489L458.71 176.25C453.915 176.332 449.094 173.62 446.921 169.338Z" fill="black"/>
<path opacity="0.1" d="M414.376 147.789C413.756 148.713 411.989 153.569 410.51 157.783C409.129 157.25 407.869 153.818 407.869 153.818L415.229 143.329C416.001 144.365 415.503 146.092 414.376 147.789Z" fill="black"/>
<path d="M414.656 147.504C414.041 148.429 412.274 153.285 410.79 157.504C409.409 156.971 408.154 153.537 408.154 153.537L415.528 143.05C416.286 144.081 415.788 145.808 414.656 147.504Z" fill="#DCE7FF"/>
<path d="M371.784 195.734L367.695 182.859C367.647 182.708 367.627 182.548 367.641 182.39C367.654 182.231 367.698 182.077 367.771 181.935C367.842 181.792 367.943 181.666 368.064 181.565C368.185 181.462 368.326 181.384 368.478 181.336C368.63 181.284 368.789 181.265 368.948 181.277C369.108 181.289 369.262 181.334 369.404 181.407C369.547 181.48 369.671 181.579 369.774 181.702C369.877 181.823 369.954 181.965 370.002 182.118L374.09 195.002L373.683 197.7L371.784 195.734Z" fill="#BE8B87"/>
<path opacity="0.1" d="M368.082 181.716C368.233 181.666 368.393 181.648 368.551 181.661C368.711 181.675 368.866 181.719 369.006 181.792C369.149 181.865 369.275 181.967 369.378 182.087C369.479 182.21 369.557 182.35 369.605 182.503L373.693 195.379L373.384 197.41L373.683 197.72L374.09 195.023L370.002 182.148C369.954 181.995 369.877 181.855 369.774 181.732C369.671 181.609 369.545 181.51 369.404 181.437C369.262 181.364 369.108 181.32 368.948 181.307C368.789 181.295 368.63 181.314 368.478 181.366C368.223 181.444 368.002 181.607 367.853 181.828C367.924 181.782 368.002 181.744 368.082 181.716Z" fill="white"/>
<path d="M371.784 195.734L374.081 195.002L373.745 197.217L373.674 197.7L373.004 196.998L371.784 195.734Z" fill="#EFC8C4"/>
<path d="M373.002 196.998C373.045 196.95 373.094 196.909 373.149 196.877C373.183 196.856 373.221 196.845 373.26 196.845C373.297 196.845 373.336 196.856 373.368 196.877C373.402 196.914 373.429 196.957 373.45 197.003C373.48 197.057 373.523 197.103 373.574 197.137C373.626 197.172 373.683 197.193 373.745 197.202L373.674 197.709L373.002 196.998Z" fill="#727A9C"/>
<path d="M367.675 187.42C367.675 187.42 375.878 187.373 373.944 190.857C372.008 194.343 368.995 194.769 368.995 194.769L367.675 187.42Z" fill="#FFB0B1"/>
<defs>
<linearGradient id="paint0_linear" x1="405.225" y1="368.702" x2="405.225" y2="103.398" gradientUnits="userSpaceOnUse">
<stop stop-color="#808080" stop-opacity="0.25"/>
<stop offset="0.54" stop-color="#808080" stop-opacity="0.12"/>
<stop offset="1" stop-color="#808080" stop-opacity="0.1"/>
</linearGradient>
</defs>
</svg>
