<svg width="55" height="55" viewBox="0 0 55 55" fill="none" xmlns="http://www.w3.org/2000/svg">
<circle cx="27.5" cy="27.5" r="27.5" fill="white" fill-opacity="0.5"/>
<circle cx="28" cy="28" r="20" fill="white"/>
<path d="M24.2398 16.27H31.3515C32.1118 16.27 32.5101 16.5447 32.661 16.7724C32.7987 16.9801 32.784 17.209 32.5826 17.4025C32.4689 17.5118 32.3515 17.617 32.2258 17.7295C32.1723 17.7775 32.1173 17.8268 32.0604 17.8783C31.8772 18.0443 31.6833 18.2261 31.5084 18.4233C31.1594 18.8167 30.8415 19.3208 30.8415 19.9695V22.5544C30.8415 22.9123 30.9285 23.2649 31.0949 23.5818L38.4807 37.6468C38.8968 38.4391 38.3221 39.39 37.4271 39.39H18.2227C17.3294 39.39 16.7546 38.4424 17.1674 37.6501L24.4997 23.5785C24.664 23.2631 24.7498 22.9128 24.7498 22.5572V19.9695C24.7498 19.3235 24.4251 18.8037 24.101 18.3951C23.958 18.2147 23.801 18.0392 23.6566 17.8778C23.636 17.8548 23.6156 17.832 23.5956 17.8095C23.4297 17.6237 23.2835 17.4558 23.1625 17.289C22.9894 17.0505 22.9945 16.8203 23.091 16.6668C23.1905 16.5084 23.4903 16.27 24.2398 16.27Z" stroke="#E81DD3" stroke-width="1.5"/>
<path d="M20.52 31.2713C22.0457 30.7463 25.4631 30.1294 26.9277 31.8619C28.7585 34.0275 33.5185 33.0431 34.8 31.2713" stroke="#E81DD3" stroke-width="1.5"/>
<path d="M33.1 36.5C33.413 36.5 33.6667 36.2463 33.6667 35.9334C33.6667 35.6204 33.413 35.3667 33.1 35.3667C32.787 35.3667 32.5333 35.6204 32.5333 35.9334C32.5333 36.2463 32.787 36.5 33.1 36.5Z" fill="#E81DD3"/>
<path d="M23.1834 34.8C23.6528 34.8 24.0334 34.4194 24.0334 33.95C24.0334 33.4805 23.6528 33.1 23.1834 33.1C22.7139 33.1 22.3334 33.4805 22.3334 33.95C22.3334 34.4194 22.7139 34.8 23.1834 34.8Z" fill="#E81DD3"/>
<path d="M26.47 37.52C26.7516 37.52 26.98 37.2917 26.98 37.01C26.98 36.7283 26.7516 36.5 26.47 36.5C26.1883 36.5 25.96 36.7283 25.96 37.01C25.96 37.2917 26.1883 37.52 26.47 37.52Z" fill="#E81DD3"/>
</svg>
