<svg width="55" height="56" viewBox="0 0 55 56" fill="none" xmlns="http://www.w3.org/2000/svg">
<path d="M35.2344 5.39417C26.5306 5.39417 19.3868 11.3951 18.8343 18.9539C10.5452 19.3697 2.75 25.3468 2.75 33.4313C2.75 36.8098 4.0869 40.0833 6.52053 42.677C7.002 44.662 6.4174 46.7659 4.96684 48.2164C4.69039 48.4929 4.60769 48.9087 4.75724 49.2701C4.90679 49.6312 5.25914 49.8668 5.65037 49.8668C8.40763 49.8668 11.0648 48.7856 13.0392 46.8803C14.9626 47.5359 17.4721 47.9332 19.7656 47.9332C28.4683 47.9332 35.6113 41.9338 36.1653 34.3765C38.1895 34.2867 40.2949 33.9128 41.9608 33.3452C43.9352 35.2504 46.5924 36.3317 49.3496 36.3317C49.7408 36.3317 50.0932 36.096 50.2428 35.735C50.3923 35.3736 50.3096 34.9578 50.0332 34.6813C48.5826 33.2308 47.998 31.1268 48.4795 29.1419C50.9131 26.5482 52.25 23.2746 52.25 19.8961C52.25 11.4959 43.8544 5.39417 35.2344 5.39417ZM19.7656 45.9996C17.4838 45.9996 14.8837 45.5517 13.1419 44.8587C12.7688 44.7099 12.3424 44.8078 12.0709 45.1042C10.9036 46.3803 9.38575 47.2701 7.73201 47.6791C8.64331 45.9332 8.87596 43.875 8.32156 41.9247C8.27772 41.7711 8.19654 41.6305 8.08511 41.5161C5.89171 39.257 4.68359 36.3857 4.68359 33.4313C4.68359 26.6184 11.5902 20.8629 19.7656 20.8629C27.4856 20.8629 34.2676 26.2313 34.2676 33.4313C34.2676 40.3616 27.7621 45.9996 19.7656 45.9996ZM46.9149 27.981C46.8035 28.0957 46.7223 28.2363 46.6784 28.3896C46.124 30.3398 46.3567 32.398 47.268 34.1439C45.6143 33.7353 44.0964 32.8452 42.9291 31.569C42.6576 31.273 42.2312 31.1748 41.8581 31.3236C40.3486 31.9241 38.1952 32.3399 36.1623 32.4403C35.8798 28.7842 34.0561 25.3479 30.9382 22.7965H43.5488C44.0828 22.7965 44.5156 22.3637 44.5156 21.8297C44.5156 21.2957 44.0828 20.8629 43.5488 20.8629H27.9679C25.7734 19.7458 23.3092 19.0944 20.7728 18.9577C21.3283 12.4642 27.6024 7.32774 35.2344 7.32774C43.4099 7.32774 50.3164 13.0832 50.3164 19.8961C50.3164 22.8505 49.1083 25.7218 46.9149 27.981Z" fill="#084673"/>
<path d="M27.3568 30.3805H11.6931C11.0064 30.3805 10.45 30.8729 10.45 31.4805C10.45 32.0881 11.0064 32.5805 11.6931 32.5805H27.3568C28.0435 32.5805 28.5999 32.0881 28.5999 31.4805C28.5999 30.8729 28.0435 30.3805 27.3568 30.3805Z" fill="#FF9905"/>
<path d="M27.5 36.3317H11.4512C10.9172 36.3317 10.4844 36.7645 10.4844 37.2985C10.4844 37.8325 10.9172 38.2652 11.4512 38.2652H27.5C28.034 38.2652 28.4668 37.8325 28.4668 37.2985C28.4668 36.7645 28.034 36.3317 27.5 36.3317Z" fill="#FF9905"/>
<path d="M43.2691 14.9805H27.1308C26.4234 14.9805 25.85 15.4729 25.85 16.0805C25.85 16.6881 26.4234 17.1805 27.1308 17.1805H43.2691C43.9766 17.1805 44.55 16.6881 44.55 16.0805C44.55 15.4729 43.9766 14.9805 43.2691 14.9805Z" fill="#084673"/>
</svg>
