<svg width="55" height="55" viewBox="0 0 55 55" fill="none" xmlns="http://www.w3.org/2000/svg">
<g clip-path="url(#clip0)">
<path d="M27.5 9.56519C22.8848 9.56519 19.1304 13.3195 19.1304 17.9348C19.1304 22.5501 22.8847 26.3044 27.5 26.3044C32.1153 26.3044 35.8696 22.55 35.8696 17.9348C35.8696 13.3196 32.1153 9.56519 27.5 9.56519ZM27.5 23.913C24.2048 23.913 21.5217 21.23 21.5217 17.9348C21.5217 14.6396 24.2048 11.9566 27.5 11.9566C30.7951 11.9566 33.4782 14.6396 33.4782 17.9348C33.4782 21.23 30.7953 23.913 27.5 23.913Z" fill="#084673"/>
<path d="M44.2391 19.1305C40.9439 19.1305 38.2609 21.8135 38.2609 25.1087C38.2609 28.4039 40.9439 31.0869 44.2391 31.0869C47.5343 31.0869 50.2173 28.4039 50.2173 25.1087C50.2173 21.8135 47.5343 19.1305 44.2391 19.1305ZM44.2391 28.6957C42.2614 28.6957 40.6521 27.0864 40.6521 25.1087C40.6521 23.1311 42.2614 21.5218 44.2391 21.5218C46.2167 21.5218 47.826 23.1311 47.826 25.1087C47.826 27.0864 46.2166 28.6957 44.2391 28.6957Z" fill="#FD9704"/>
<path d="M10.9306 19.1305C7.63297 19.1305 4.95239 21.8135 4.95239 25.1087C4.95239 28.4039 7.63543 31.0869 10.9306 31.0869C14.2258 31.0869 16.9088 28.4039 16.9088 25.1087C16.9088 21.8135 14.2281 19.1305 10.9306 19.1305ZM10.9306 28.6957C8.95297 28.6957 7.34366 27.0864 7.34366 25.1087C7.34366 23.1311 8.95297 21.5218 10.9306 21.5218C12.9083 21.5218 14.5176 23.1311 14.5176 25.1087C14.5176 27.0864 12.9081 28.6957 10.9306 28.6957Z" fill="#FD9704"/>
<path d="M44.2392 33.4783C42.2711 33.4783 40.3437 34.0163 38.665 35.0327C38.1031 35.377 37.9213 36.1111 38.2633 36.6755C38.61 37.2399 39.3417 37.4192 39.9061 37.0772C41.2093 36.2856 42.7063 35.8695 44.2392 35.8695C48.8543 35.8695 52.6088 39.6238 52.6088 44.2391C52.6088 44.8991 53.1444 45.4348 53.8044 45.4348C54.4644 45.4348 55.0001 44.8991 55.0001 44.2391C55 38.3063 50.172 33.4783 44.2392 33.4783Z" fill="#FD9704"/>
<path d="M16.3326 35.0302C14.6563 34.0163 12.729 33.4783 10.7609 33.4783C4.82804 33.4783 0 38.3063 0 44.2391C0 44.8991 0.535689 45.4348 1.19569 45.4348C1.85569 45.4348 2.39138 44.8991 2.39138 44.2391C2.39127 39.6238 6.14569 35.8695 10.7609 35.8695C12.2937 35.8695 13.7906 36.2856 15.0915 37.0748C15.6535 37.4167 16.39 37.2374 16.7344 36.673C17.0787 36.1086 16.8969 35.3745 16.3326 35.0302Z" fill="#FD9704"/>
<path d="M27.4999 28.6956C18.9295 28.6956 11.9564 35.6686 11.9564 44.2391C11.9564 44.8991 12.4921 45.4347 13.1521 45.4347C13.8121 45.4347 14.3478 44.8991 14.3478 44.2391C14.3478 36.9862 20.2471 31.0869 27.4999 31.0869C34.7527 31.0869 40.6521 36.9862 40.6521 44.2391C40.6521 44.8991 41.1877 45.4347 41.8477 45.4347C42.5077 45.4347 43.0434 44.8991 43.0434 44.2391C43.0434 35.6686 36.0704 28.6956 27.4999 28.6956Z" fill="#084673"/>
</g>
<defs>
<clipPath id="clip0">
<rect width="55" height="55" fill="white"/>
</clipPath>
</defs>
</svg>
