<svg width="581" height="481" viewBox="0 0 581 481" fill="none" xmlns="http://www.w3.org/2000/svg">
<g clip-path="url(#clip0)">
<path d="M297.416 441.262C294.591 441.262 291.738 441.218 288.938 441.13L289.001 439.097C293.023 439.222 297.126 439.257 301.167 439.201L301.195 441.236C299.937 441.253 298.677 441.262 297.416 441.262ZM313.444 440.79L313.325 438.759C317.352 438.521 321.431 438.188 325.449 437.767L325.662 439.79C321.613 440.215 317.504 440.552 313.444 440.79V440.79ZM276.699 440.473C272.638 440.162 268.534 439.755 264.501 439.26L264.749 437.241C268.751 437.73 272.824 438.136 276.854 438.444L276.699 440.473ZM337.819 438.235L337.514 436.224C341.515 435.617 345.547 434.912 349.495 434.128L349.892 436.123C345.913 436.913 341.851 437.624 337.819 438.235V438.235ZM252.372 437.491C248.361 436.811 244.311 436.03 240.336 435.167L240.768 433.178C244.713 434.035 248.731 434.81 252.712 435.483L252.372 437.491ZM361.858 433.459L361.368 431.484C365.296 430.513 369.246 429.439 373.108 428.295L373.687 430.246C369.795 431.4 365.815 432.481 361.858 433.459V433.459ZM228.421 432.292C224.486 431.246 220.525 430.095 216.65 428.87L217.264 426.93C221.109 428.146 225.039 429.287 228.944 430.325L228.421 432.292ZM385.355 426.491L384.687 424.569C388.499 423.244 392.332 421.812 396.083 420.312L396.839 422.202C393.06 423.713 389.197 425.156 385.355 426.491L385.355 426.491ZM205.02 424.897C201.198 423.493 197.352 421.977 193.59 420.393L194.38 418.517C198.113 420.089 201.929 421.593 205.723 422.987L205.02 424.897ZM408.086 417.399L407.243 415.547C410.904 413.884 414.583 412.109 418.179 410.272L419.106 412.084C415.482 413.936 411.775 415.724 408.086 417.399V417.399ZM182.383 415.37C178.71 413.62 175.022 411.759 171.424 409.837L172.383 408.042C175.954 409.949 179.613 411.796 183.259 413.533L182.383 415.37ZM429.87 406.268L428.862 404.501C432.372 402.499 435.877 400.394 439.276 398.244L440.363 399.964C436.939 402.13 433.408 404.252 429.87 406.268V406.268ZM160.733 403.807C157.239 401.73 153.74 399.538 150.333 397.295L151.453 395.596C154.834 397.822 158.306 399.996 161.774 402.058L160.733 403.807ZM450.559 393.184L449.394 391.517C452.7 389.208 455.998 386.79 459.198 384.332L460.439 385.946C457.215 388.423 453.891 390.859 450.559 393.184ZM140.244 390.318C136.958 387.932 133.676 385.433 130.487 382.888L131.757 381.298C134.922 383.823 138.18 386.303 141.44 388.671L140.244 390.318ZM469.98 378.264L468.668 376.708C471.749 374.109 474.815 371.401 477.782 368.658L479.164 370.153C476.175 372.916 473.085 375.645 469.98 378.264V378.264ZM121.08 375.022C118.02 372.343 114.979 369.557 112.044 366.739L113.453 365.27C116.367 368.067 119.384 370.833 122.421 373.492L121.08 375.022ZM487.971 361.629L486.522 360.2C489.362 357.323 492.171 354.346 494.87 351.352L496.384 352.713C493.664 355.731 490.833 358.731 487.971 361.629V361.629ZM103.395 358.056C100.587 355.104 97.8143 352.053 95.153 348.989L96.6908 347.655C99.3318 350.697 102.084 353.724 104.871 356.653L103.395 358.056ZM504.382 343.423L502.809 342.131C505.375 339.009 507.901 335.789 510.32 332.556L511.95 333.774C509.513 337.032 506.967 340.278 504.382 343.423ZM87.3335 339.559C84.8118 336.374 82.3289 333.086 79.9534 329.785L81.6057 328.597C83.9633 331.871 86.4273 335.135 88.9301 338.297L87.3335 339.559ZM519.07 323.789L517.386 322.646C519.657 319.304 521.88 315.865 523.995 312.421L525.731 313.487C523.598 316.956 521.358 320.422 519.07 323.789ZM73.0291 319.689C70.8107 316.289 68.6394 312.791 66.5751 309.289L68.3288 308.256C70.3777 311.731 72.5326 315.203 74.7341 318.576L73.0291 319.689ZM531.912 302.887L530.131 301.903C532.085 298.368 533.984 294.736 535.777 291.11L537.602 292.013C535.797 295.666 533.882 299.325 531.912 302.887V302.887ZM60.6048 298.608C58.706 295.021 56.8648 291.34 55.1325 287.669L56.9737 286.8C58.693 290.443 60.5198 294.096 62.4042 297.656L60.6048 298.608ZM542.785 280.885L540.92 280.069C542.543 276.365 544.101 272.572 545.551 268.795L547.452 269.525C545.991 273.331 544.42 277.153 542.785 280.885V280.885ZM50.1691 276.494C48.6083 272.749 47.1136 268.919 45.7268 265.106L47.6405 264.411C49.0164 268.194 50.4997 271.995 52.048 275.711L50.1691 276.494ZM551.59 257.957L549.657 257.317C550.928 253.491 552.126 249.579 553.22 245.69L555.18 246.241C554.078 250.159 552.869 254.102 551.59 257.957L551.59 257.957ZM41.8049 253.497C40.5935 249.619 39.4552 245.657 38.4218 241.719L40.3911 241.203C41.4166 245.11 42.5464 249.042 43.7484 252.891L41.8049 253.497ZM558.226 234.372L556.242 233.91C557.154 229.988 557.987 225.982 558.72 222.006L560.722 222.374C559.984 226.382 559.144 230.417 558.226 234.372L558.226 234.372ZM35.5863 229.798C34.7373 225.823 33.9689 221.774 33.3028 217.76L35.311 217.426C35.9726 221.41 36.7351 225.429 37.5776 229.373L35.5863 229.798ZM562.662 210.277L560.644 210.001C561.192 206.015 561.654 201.95 562.019 197.919L564.047 198.102C563.679 202.165 563.213 206.26 562.663 210.277L562.662 210.277ZM31.574 205.63C31.0938 201.601 30.6996 197.498 30.4019 193.435L32.4329 193.286C32.7277 197.319 33.1194 201.391 33.5961 205.39L31.574 205.63ZM564.876 185.879L562.842 185.788C563.023 181.755 563.116 177.665 563.116 173.631H565.152C565.152 177.696 565.059 181.817 564.876 185.879L564.876 185.879ZM29.7851 181.197C29.7155 178.701 29.6802 176.155 29.6797 173.631C29.6797 172.065 29.6931 170.502 29.72 168.941L31.756 168.977C31.7291 170.526 31.7157 172.077 31.7157 173.631C31.7162 176.136 31.7515 178.663 31.8201 181.141L29.7851 181.197ZM563.101 170.792C563.059 166.757 562.924 162.667 562.7 158.635L564.732 158.522C564.958 162.584 565.094 166.705 565.137 170.77L563.101 170.792ZM32.2392 156.827L30.2072 156.7C30.4612 152.634 30.8122 148.526 31.2491 144.492L33.2732 144.711C32.8392 148.715 32.4918 152.791 32.2392 156.827V156.827ZM561.748 146.514C561.341 142.502 560.835 138.442 560.245 134.447L562.259 134.15C562.853 138.175 563.363 142.266 563.774 146.308L561.748 146.514ZM34.8583 132.656L32.8462 132.345C33.47 128.319 34.1947 124.261 35.0005 120.282L36.9957 120.686C36.1964 124.634 35.4772 128.661 34.8583 132.656V132.656ZM558.19 122.464C557.413 118.494 556.538 114.497 555.585 110.586L557.563 110.105C558.523 114.046 559.406 118.074 560.188 122.073L558.19 122.464ZM39.6809 108.827L37.7061 108.332C38.6947 104.39 39.7898 100.415 40.9609 96.5179L42.9104 97.1033C41.7488 100.971 40.6621 104.915 39.6809 108.827ZM552.436 98.8403C551.3 94.9652 550.06 91.0671 548.748 87.2531L550.673 86.5913C551.995 90.4346 553.246 94.3634 554.39 98.2679L552.436 98.8403ZM46.6898 85.5096L44.7691 84.8348C46.1221 80.9874 47.583 77.1217 49.1111 73.3449L50.999 74.1081C49.4823 77.8556 48.0323 81.692 46.6897 85.5096H46.6898ZM544.529 75.8478C543.044 72.1023 541.453 68.3434 539.801 64.6749L541.658 63.8392C543.323 67.536 544.926 71.3237 546.422 75.0975L544.529 75.8478ZM55.8279 62.9214L53.9778 62.0717C55.6783 58.37 57.4881 54.6578 59.3571 51.0386L61.1665 51.9716C59.3114 55.5636 57.5155 59.2475 55.8279 62.9214ZM534.565 53.7266C532.743 50.1337 530.812 46.5333 528.827 43.0269L530.598 42.0242C532.599 45.558 534.544 49.1857 536.38 52.8064L534.565 53.7266ZM67.0026 41.2819L65.238 40.2662C67.269 36.7409 69.4109 33.212 71.6045 29.7786L73.3204 30.8737C71.1438 34.2813 69.0178 37.7833 67.0027 41.2819H67.0026ZM522.603 32.5964C520.452 29.1729 518.199 25.7623 515.908 22.4591L517.58 21.2994C519.889 24.628 522.16 28.0644 524.327 31.5142L522.603 32.5964ZM80.1075 20.7681L78.4432 19.5955C80.7904 16.2679 83.2445 12.9512 85.7388 9.73743L87.3473 10.9846C84.8724 14.1745 82.4363 17.4659 80.1075 20.7681ZM508.754 12.6352C506.3 9.42289 503.745 6.22945 501.158 3.14383L502.718 1.83656C505.325 4.94604 507.9 8.16335 510.372 11.4L508.754 12.6352ZM95.0247 1.54438L93.4748 0.224668C96.1088 -2.86791 98.8541 -5.94606 101.634 -8.92438L103.123 -7.53611C100.364 -4.58015 97.6393 -1.52484 95.0247 1.54438ZM493.137 -5.99426C490.402 -8.97007 487.565 -11.9196 484.705 -14.7597L486.141 -16.2037C489.022 -13.3412 491.88 -10.3698 494.636 -7.37164L493.137 -5.99426ZM111.623 -16.2354L110.199 -17.6903C113.111 -20.5374 116.123 -23.3522 119.153 -26.0562L120.509 -24.5378C117.502 -21.8546 114.512 -19.0612 111.623 -16.2354H111.623ZM475.884 -23.1346C472.887 -25.852 469.792 -28.5322 466.686 -31.1006L467.985 -32.6687C471.113 -30.0809 474.232 -27.3804 477.252 -24.6421L475.884 -23.1346ZM129.762 -32.4272L128.477 -34.0053C131.626 -36.5687 134.88 -39.0969 138.15 -41.5196L139.363 -39.8849C136.117 -37.48 132.887 -34.9713 129.762 -32.4272ZM457.135 -38.6417C453.901 -41.0759 450.573 -43.4644 447.245 -45.7406L448.394 -47.4201C451.748 -45.127 455.101 -42.7206 458.359 -40.2675L457.135 -38.6417ZM149.29 -46.8949L148.153 -48.5833C151.524 -50.85 154.993 -53.0696 158.466 -55.1818L159.524 -53.4428C156.078 -51.347 152.635 -49.1438 149.29 -46.8949ZM437.039 -52.3809C433.598 -54.5095 430.065 -56.5845 426.538 -58.5491L427.528 -60.327C431.083 -58.3474 434.643 -56.256 438.111 -54.112L437.039 -52.3809ZM170.045 -59.5146L169.067 -61.3004C172.633 -63.2506 176.289 -65.1428 179.933 -66.9251L180.828 -65.0966C177.211 -63.3281 173.583 -61.4504 170.045 -59.5146L170.045 -59.5146ZM415.761 -64.23C412.139 -66.0342 408.427 -67.7772 404.731 -69.4105L405.554 -71.2718C409.279 -69.6261 413.019 -67.8696 416.67 -66.0515L415.761 -64.23ZM191.852 -70.1771L191.043 -72.0444C194.769 -73.6588 198.581 -75.207 202.371 -76.6465L203.094 -74.7435C199.332 -73.3154 195.55 -71.7791 191.852 -70.1772L191.852 -70.1771ZM393.47 -74.0791C389.701 -75.5404 385.842 -76.9347 382.002 -78.2226L382.65 -80.1524C386.519 -78.8541 390.407 -77.4494 394.206 -75.9762L393.47 -74.0791ZM214.563 -78.7975L213.928 -80.7313C217.797 -81.9994 221.745 -83.1934 225.661 -84.2791L226.205 -82.3184C222.319 -81.2407 218.402 -80.0562 214.562 -78.7975L214.563 -78.7975ZM370.382 -81.8235C366.499 -82.93 362.538 -83.9606 358.611 -84.8863L359.078 -86.8668C363.037 -85.9342 367.027 -84.8957 370.941 -83.7812L370.382 -81.8235ZM237.999 -85.2992L237.546 -87.2832C241.512 -88.189 245.553 -89.0143 249.555 -89.7358L249.917 -87.7334C245.945 -87.0169 241.935 -86.1981 237.999 -85.2992V-85.2992ZM346.71 -87.4025C342.745 -88.1463 338.707 -88.8081 334.706 -89.3696L334.989 -91.3849C339.02 -90.819 343.09 -90.1522 347.086 -89.4029L346.71 -87.4025ZM261.935 -89.617L261.665 -91.6344C265.696 -92.172 269.794 -92.6242 273.848 -92.9769L274.025 -90.9497C270.002 -90.5989 265.935 -90.1507 261.935 -89.6171L261.935 -89.617ZM322.624 -90.7847C318.614 -91.1623 314.532 -91.4535 310.491 -91.6488L310.59 -93.682C314.661 -93.4848 318.774 -93.1915 322.815 -92.811L322.624 -90.7847ZM286.165 -91.7303L286.08 -93.7635C289.822 -93.9195 293.635 -93.999 297.416 -94L298.337 -93.9986L298.331 -91.9633L297.416 -91.9648C293.664 -91.9638 289.878 -91.8848 286.165 -91.7303V-91.7303Z" fill="#E6E6E6"/>
<path d="M298.056 439.872V328.583C298.058 327.024 298.678 325.53 299.781 324.427C300.884 323.325 302.379 322.705 303.939 322.703H317.297C318.857 322.705 320.352 323.325 321.455 324.427C322.558 325.53 323.178 327.024 323.18 328.583V439.872C323.178 441.432 322.558 442.926 321.455 444.029C320.352 445.131 318.857 445.751 317.297 445.753H303.939C302.379 445.751 300.884 445.131 299.781 444.029C298.678 442.926 298.058 441.432 298.056 439.872V439.872Z" fill="#2F2E41"/>
<path d="M271.636 439.872V328.583C271.638 327.024 272.258 325.53 273.361 324.427C274.464 323.325 275.959 322.705 277.518 322.703H290.877C292.436 322.705 293.931 323.325 295.034 324.427C296.137 325.53 296.758 327.024 296.759 328.583V439.872C296.758 441.432 296.137 442.926 295.034 444.029C293.931 445.131 292.436 445.751 290.877 445.753H277.518C275.959 445.751 274.464 445.131 273.361 444.029C272.258 442.926 271.638 441.432 271.636 439.872V439.872Z" fill="#2F2E41"/>
<path d="M324.45 291.842H270.365C267.366 291.842 264.935 294.272 264.935 297.27V358.341C264.935 361.339 267.366 363.769 270.365 363.769H324.45C327.449 363.769 329.88 361.339 329.88 358.341V297.27C329.88 294.272 327.449 291.842 324.45 291.842Z" fill="#2F2E41"/>
<path d="M206.483 116.995C206.483 116.995 179.188 129.67 156.091 138.076C141.758 105.732 121.108 106.943 121.108 106.943L108.59 115.559L110.847 128.483L110.231 149.614L106.948 160.692L111.66 161.543L114.322 162.025L114.723 161.662C114.059 164.293 113.79 167.008 113.925 169.718L232.342 151.255C232.342 151.255 228.237 132.176 206.483 116.995Z" fill="#E6E6E6"/>
<path d="M171.516 283.348L179.455 294.086C181.238 296.497 184.638 297.007 187.05 295.225L276.584 229.081C278.996 227.299 279.506 223.9 277.723 221.489L269.784 210.751C268.001 208.34 264.601 207.83 262.189 209.612L172.655 275.757C170.244 277.538 169.733 280.937 171.516 283.348Z" fill="#137ECB"/>
<path d="M324.078 207.103L312.279 213.362C309.63 214.768 308.622 218.054 310.028 220.702L362.217 319.006C363.622 321.654 366.91 322.661 369.559 321.256L381.358 314.997C384.007 313.591 385.015 310.305 383.609 307.657L331.421 209.353C330.015 206.705 326.728 205.698 324.078 207.103Z" fill="#137ECB"/>
<path d="M357.157 250.732L337.886 263.502C334.941 265.064 331.414 264.184 330.008 261.536L308.726 221.448C307.32 218.8 308.568 215.387 311.513 213.825L324.629 206.867C327.574 205.305 331.101 206.185 332.507 208.833L359.943 243.109C361.349 245.757 360.102 249.17 357.157 250.732Z" fill="#CCCCCC"/>
<path d="M225.836 238.989L238.361 255.616C239.347 256.665 240.709 257.281 242.148 257.326C243.588 257.372 244.986 256.844 246.036 255.859L279.139 224.8C280.19 223.814 280.805 222.453 280.851 221.014C280.896 219.575 280.368 218.177 279.382 217.127L270.241 207.391C269.255 206.342 267.893 205.726 266.453 205.681C265.014 205.635 263.615 206.163 262.565 207.148L226.079 231.316C225.029 232.301 224.413 233.663 224.367 235.102C224.322 236.541 224.85 237.939 225.836 238.989V238.989Z" fill="#CCCCCC"/>
<path d="M327.755 205.504H267.061C264.062 205.504 261.63 207.934 261.63 210.932V339.827C261.63 342.825 264.062 345.255 267.061 345.255H327.755C330.754 345.255 333.185 342.825 333.185 339.827V210.932C333.185 207.934 330.754 205.504 327.755 205.504Z" fill="#CCCCCC"/>
<path d="M297.053 197.092C323.804 197.092 345.49 175.415 345.49 148.674C345.49 121.934 323.804 100.256 297.053 100.256C270.302 100.256 248.616 121.934 248.616 148.674C248.616 175.415 270.302 197.092 297.053 197.092Z" fill="#137ECB"/>
<path d="M302.699 164.84C299.706 164.756 295.981 164.652 293.115 162.558C292.261 161.908 291.559 161.08 291.059 160.131C290.558 159.182 290.272 158.135 290.219 157.063C290.167 156.302 290.292 155.539 290.584 154.834C290.876 154.129 291.328 153.501 291.903 152.999C293.4 151.734 295.588 151.436 297.946 152.13L295.503 134.284L297.298 134.038L300.168 155.018L298.671 154.332C296.936 153.535 294.552 153.13 293.071 154.381C292.708 154.708 292.424 155.114 292.243 155.569C292.063 156.023 291.989 156.512 292.028 157C292.072 157.797 292.287 158.576 292.659 159.283C293.031 159.99 293.55 160.608 294.183 161.096C296.413 162.726 299.382 162.937 302.75 163.03L302.699 164.84Z" fill="#2F2E41"/>
<path d="M286.635 135.823H276.886V137.632H286.635V135.823Z" fill="#2F2E41"/>
<path d="M317.406 135.823H307.658V137.632H317.406V135.823Z" fill="#2F2E41"/>
<path d="M265.055 110.838C257.204 109.943 251.124 102.424 250.456 94.7949C249.662 85.719 254.95 77.099 262.204 72.006C269.79 66.6799 279.242 64.4557 288.386 63.9661C306.226 63.0787 323.758 68.8552 337.574 80.1723C344.426 85.8613 350.826 93.1082 353.251 101.862C355.358 109.463 353.644 118.075 347.527 123.399C346.014 124.704 344.247 125.681 342.337 126.269C340.427 126.857 338.417 127.043 336.431 126.814C331.685 126.322 327.307 123.827 323.516 121.072C316.143 115.714 310.09 108.248 301.107 105.448C294.52 103.395 285.973 105.202 281.948 111.156C281.035 112.519 280.443 114.072 280.217 115.696C280.134 116.043 280.185 116.408 280.361 116.718C280.538 117.028 280.825 117.259 281.165 117.366C281.512 117.459 281.882 117.412 282.195 117.235C282.507 117.057 282.737 116.764 282.835 116.418C283.892 108.919 293.116 106.12 299.59 107.833C309.028 110.33 315.364 118.749 323.107 124.098C327.179 126.91 331.809 129.159 336.803 129.562C341.107 129.9 345.379 128.588 348.752 125.893C355.368 120.671 357.898 111.69 356.435 103.604C354.741 94.2397 348.436 86.2144 341.518 80.0011C327.493 67.538 309.286 60.8146 290.524 61.1707C280.955 61.3904 270.97 63.3651 262.726 68.421C254.729 73.3252 248.549 81.5298 247.741 91.0669C247.03 99.4614 251.535 108.242 259.27 111.919C261.093 112.783 263.049 113.335 265.055 113.552C266.788 113.749 266.774 111.034 265.055 110.838H265.055Z" fill="#2F2E41"/>
<path d="M114.233 160.384L119.98 158.538C120.595 157.358 119.469 158.115 120.006 156.968C134.545 125.964 121.109 106.943 121.109 106.943L110.714 114.097C110.689 114.038 110.668 113.977 110.642 113.918C110.642 113.918 108.795 109.815 105.922 112.892C105.922 112.892 114.952 134.843 104.896 162.128L116.593 167.462L121.108 162.128L121.211 161.615L113.131 160.881L114.233 160.384Z" fill="#CCCCCC"/>
<path d="M278.108 275.574C231.931 265.317 188.936 286.549 188.936 286.549L188.819 286.445L171.697 271.163L104.793 162.025L121.109 162.128C166.464 135.048 230.289 138.741 230.289 138.741C257.79 169.923 278.108 275.574 278.108 275.574Z" fill="#3F3D56"/>
<path opacity="0.1" d="M188.819 286.445L171.697 271.163L104.793 162.025L121.109 162.128C121.109 162.128 186.137 247.98 188.819 286.445Z" fill="black"/>
<path d="M196.334 201.289C210.313 197.003 219.435 186.329 216.71 177.446C213.984 168.564 200.443 164.838 186.464 169.124C172.486 173.41 163.363 184.085 166.089 192.967C168.814 201.849 182.355 205.575 196.334 201.289Z" fill="#137ECB"/>
<path d="M53.4076 109.108C49.7207 122.732 37.092 131.17 37.092 131.17C37.092 131.17 30.4411 117.519 34.128 103.895C37.815 90.2711 50.4436 81.8335 50.4436 81.8335C50.4436 81.8335 57.0946 95.4846 53.4076 109.108Z" fill="#CCCCCC"/>
<path d="M19.8668 109.108C23.5538 122.732 36.1824 131.17 36.1824 131.17C36.1824 131.17 42.8333 117.519 39.1464 103.895C35.4595 90.2711 22.8308 81.8335 22.8308 81.8335C22.8308 81.8335 16.1799 95.4846 19.8668 109.108Z" fill="#CCCCCC"/>
<path d="M25.2843 106.18C35.4014 116.025 36.6371 131.159 36.6371 131.159C36.6371 131.159 21.4699 130.331 11.3528 120.486C1.23572 110.641 0 95.5078 0 95.5078C0 95.5078 15.1673 96.3357 25.2843 106.18Z" fill="#3F3D56"/>
<path d="M47.99 106.18C37.8729 116.025 36.6372 131.159 36.6372 131.159C36.6372 131.159 51.8045 130.331 61.9215 120.486C72.0386 110.641 73.2743 95.5078 73.2743 95.5078C73.2743 95.5078 58.1071 96.3357 47.99 106.18Z" fill="#3F3D56"/>
<path d="M561.133 262.904C557.446 276.528 544.818 284.966 544.818 284.966C544.818 284.966 538.167 271.315 541.854 257.691C545.541 244.067 558.169 235.629 558.169 235.629C558.169 235.629 564.82 249.28 561.133 262.904Z" fill="#CCCCCC"/>
<path d="M527.592 262.904C531.279 276.528 543.908 284.966 543.908 284.966C543.908 284.966 550.559 271.315 546.872 257.691C543.185 244.067 530.556 235.629 530.556 235.629C530.556 235.629 523.905 249.28 527.592 262.904Z" fill="#CCCCCC"/>
<path d="M533.01 259.976C543.127 269.821 544.363 284.955 544.363 284.955C544.363 284.955 529.195 284.127 519.078 274.282C508.961 264.437 507.726 249.304 507.726 249.304C507.726 249.304 522.893 250.132 533.01 259.976Z" fill="#3F3D56"/>
<path d="M555.716 259.976C545.599 269.821 544.363 284.955 544.363 284.955C544.363 284.955 559.53 284.127 569.647 274.282C579.764 264.437 581 249.304 581 249.304C581 249.304 565.833 250.132 555.716 259.976Z" fill="#3F3D56"/>
<path d="M403.613 445.191H193.644V447H403.613V445.191Z" fill="#3F3D56"/>
</g>
<defs>
<clipPath id="clip0">
<rect width="581" height="481" fill="white"/>
</clipPath>
</defs>
</svg>
