<svg width="55" height="55" viewBox="0 0 55 55" fill="none" xmlns="http://www.w3.org/2000/svg">
<circle cx="27.5" cy="27.5" r="27.5" fill="white" fill-opacity="0.5"/>
<circle cx="28" cy="28" r="20" fill="white"/>
<path d="M38.3095 28.5818L36.2381 19.0274C35.692 16.5082 32.9304 15.1664 30.6125 16.2939L16.0221 23.3909C14.3736 24.1927 13.4868 26.0177 13.8752 27.8093L14.4804 30.6006C14.8835 32.46 16.5471 33.7733 18.4492 33.7338L34.5058 33.4C37.007 33.3479 38.8394 31.0269 38.3095 28.5818Z" stroke="#E8AF1D" stroke-width="1.8"/>
<path fill-rule="evenodd" clip-rule="evenodd" d="M37.9866 27.093C39.5543 26.7532 40.5496 25.207 40.2098 23.6393C39.8699 22.0717 38.3236 21.0764 36.756 21.4163L36.3909 19.7322C38.8886 19.1908 41.3524 20.7766 41.8938 23.2742C42.4353 25.7719 40.8495 28.2356 38.3518 28.7771C38.3517 28.7771 38.3517 28.7771 38.3517 28.7771L37.9866 27.093Z" fill="#E8AF1D"/>
<path d="M21.6665 34.6432L22.7363 39.578" stroke="#E8AF1D" stroke-width="1.8" stroke-linecap="round"/>
</svg>
