<svg width="30" height="30" viewBox="0 0 30 30" fill="none" xmlns="http://www.w3.org/2000/svg">
<path fill-rule="evenodd" clip-rule="evenodd" d="M22.9716 7.03406C20.8566 4.91719 18.0441 3.75094 15.0469 3.75C8.8725 3.75 3.84656 8.77406 3.84375 14.9484C3.84281 16.9219 4.35844 18.8494 5.33906 20.5472L3.75 26.3512L9.68906 24.7941C11.325 25.6866 13.1681 26.1562 15.0431 26.1572H15.0478C21.2222 26.1572 26.2481 21.1331 26.2509 14.9578C26.2509 11.9653 25.0866 9.15094 22.9716 7.03406ZM15.0469 24.2653H15.0431C13.3725 24.2644 11.7338 23.8162 10.3041 22.9678L9.96375 22.7662L6.43969 23.6906L7.38 20.2556L7.15875 19.9031C6.22688 18.4209 5.73469 16.7081 5.73469 14.9494C5.73656 9.81656 9.91406 5.64188 15.0497 5.64188C17.5369 5.64281 19.875 6.61219 21.6328 8.37187C23.3906 10.1316 24.3581 12.4697 24.3572 14.9569C24.3563 20.0897 20.1797 24.2653 15.0469 24.2653ZM20.1544 17.2941C19.8741 17.1544 18.4978 16.4766 18.2419 16.3837C17.985 16.29 17.7984 16.2441 17.6119 16.5234C17.4253 16.8037 16.8891 17.4337 16.7259 17.6203C16.5628 17.8069 16.3997 17.8303 16.1194 17.6906C15.8391 17.5509 14.9372 17.2547 13.8684 16.3012C13.0359 15.5597 12.4744 14.6428 12.3113 14.3625C12.1481 14.0822 12.2934 13.9312 12.4341 13.7916C12.5597 13.6659 12.7144 13.4644 12.8541 13.3012C12.9938 13.1381 13.0406 13.0209 13.1344 12.8344C13.2281 12.6478 13.1813 12.4837 13.1109 12.3441C13.0406 12.2044 12.4809 10.8262 12.2475 10.2666C12.0206 9.72094 11.7891 9.795 11.6175 9.78656C11.4544 9.77812 11.2678 9.77719 11.0813 9.77719C10.8947 9.77719 10.5909 9.8475 10.335 10.1278C10.0791 10.4081 9.35531 11.085 9.35531 12.4622C9.35531 13.8394 10.3584 15.1706 10.4981 15.3572C10.6378 15.5437 12.4716 18.3703 15.2803 19.5825C15.9478 19.8703 16.47 20.0428 16.8759 20.1722C17.5463 20.385 18.1566 20.355 18.6394 20.2828C19.1775 20.2022 20.2959 19.6059 20.5284 18.9525C20.7619 18.2991 20.7619 17.7384 20.6916 17.6222C20.6213 17.5041 20.4347 17.4337 20.1544 17.2941Z" fill="white"/>
</svg>
