<svg width="30" height="30" viewBox="0 0 30 30" fill="none" xmlns="http://www.w3.org/2000/svg">
<g clip-path="url(#clip0)">
<path fill-rule="evenodd" clip-rule="evenodd" d="M14.9998 3.75C14.9999 3.75 15 3.75 15 5L15 6.25L14.9057 6.25014C14.8431 6.25028 14.7507 6.25055 14.6321 6.25111C14.3949 6.25222 14.0531 6.25445 13.636 6.25891C12.8013 6.26784 11.6675 6.28569 10.4684 6.32132C9.26728 6.35701 8.01075 6.41027 6.92765 6.48927C5.81751 6.57024 4.99265 6.67201 4.58169 6.78024C4.20831 6.8875 3.86947 7.09066 3.59892 7.36958C3.33501 7.64166 3.14512 7.97649 3.04701 8.34219C2.67258 10.4342 2.48948 12.556 2.49998 14.6813L2.50005 14.6953C2.48665 16.8294 2.66838 18.9601 3.04309 21.0609C3.15137 21.408 3.34316 21.7235 3.60197 21.9796C3.87311 22.248 4.20867 22.4421 4.57642 22.5434C4.98557 22.6521 5.81274 22.7544 6.92765 22.8357C8.01075 22.9147 9.26728 22.968 10.4684 23.0037C11.6675 23.0393 12.8013 23.0572 13.636 23.0661C14.0531 23.0705 14.3949 23.0728 14.6321 23.0739C14.7507 23.0744 14.8431 23.0747 14.9057 23.0749H15.0943C15.1569 23.0747 15.2493 23.0744 15.3679 23.0739C15.6051 23.0728 15.9469 23.0705 16.364 23.0661C17.1987 23.0572 18.3325 23.0393 19.5316 23.0037C20.7327 22.968 21.9892 22.9147 23.0723 22.8357C24.1825 22.7548 25.0073 22.653 25.4183 22.5448C25.7917 22.4375 26.1305 22.2343 26.4011 21.9554C26.665 21.6833 26.8549 21.3485 26.953 20.9828C27.3245 18.9067 27.5076 16.8012 27.5 14.692L27.5 14.6797C27.5134 12.5382 27.3304 10.4001 26.953 8.29221C26.8549 7.9265 26.665 7.59166 26.4011 7.31958C26.1336 7.04386 25.7994 6.84216 25.4311 6.73397C25.0062 6.634 24.1783 6.54185 23.0802 6.46872C21.9949 6.39645 20.7367 6.34777 19.5348 6.31517C18.3349 6.28261 17.2003 6.2663 16.3651 6.25814C15.9478 6.25407 15.6058 6.25203 15.3684 6.25101L15.0946 6.25013L15 6.25L15 5C15 3.75 14.9999 3.75 14.9998 3.75L15.0996 3.75013C15.164 3.75026 15.2584 3.75052 15.3791 3.75104C15.6204 3.75207 15.9671 3.75414 16.3895 3.75826C17.2341 3.76651 18.3839 3.78302 19.6026 3.81608C20.8196 3.8491 22.1144 3.89887 23.2463 3.97425C24.3459 4.04747 25.3894 4.15021 26.0465 4.31068C26.0612 4.31426 26.0758 4.3181 26.0903 4.32221C26.8904 4.54858 27.6166 4.98208 28.1956 5.57894C28.7745 6.17579 29.1857 6.91486 29.3876 7.72149L28.175 8.025L29.4051 7.80311C29.815 10.0753 30.0141 12.3804 30 14.6892C30.0078 16.9634 29.8087 19.2336 29.4052 21.4718C29.4002 21.4992 29.3944 21.5265 29.3876 21.5535C29.1857 22.3601 28.7745 23.0992 28.1956 23.6961C27.6166 24.2929 26.8904 24.7264 26.0903 24.9528L26.073 24.9576C25.4059 25.136 24.3533 25.2489 23.2542 25.3291C22.1201 25.4118 20.8235 25.4664 19.6059 25.5026C18.3862 25.5388 17.2357 25.5569 16.3907 25.5659C15.968 25.5705 15.6211 25.5727 15.3796 25.5739C15.2588 25.5744 15.1644 25.5747 15.0999 25.5749L15.0006 25.575L14.9001 25.5749C14.8356 25.5747 14.7412 25.5744 14.6204 25.5739C14.3789 25.5727 14.032 25.5705 13.6093 25.5659C12.7643 25.5569 11.6138 25.5388 10.3941 25.5026C9.17646 25.4664 7.87987 25.4118 6.74578 25.3291C5.64666 25.2489 4.59411 25.136 3.92705 24.9576L3.9201 24.9557C3.13626 24.7412 2.42099 24.3282 1.84339 23.7566C1.26578 23.1849 0.845383 22.4739 0.622799 21.6924C0.6115 21.6527 0.602172 21.6125 0.59485 21.5719C0.18505 19.3 -0.0140844 16.9952 -2.13481e-05 14.6867C-0.0109142 12.3954 0.188205 10.108 0.59484 7.85316C0.599783 7.82575 0.605641 7.79851 0.612404 7.77149C0.814302 6.96486 1.22549 6.22579 1.80444 5.62894C2.38339 5.03208 3.1096 4.59858 3.90971 4.37221L3.92705 4.36744C4.59411 4.18904 5.64666 4.07606 6.74578 3.99589C7.87987 3.91317 9.17646 3.85861 10.3941 3.82243C11.6138 3.78618 12.7643 3.7681 13.6093 3.75906C14.032 3.75453 14.3789 3.75227 14.6204 3.75114C14.7412 3.75057 14.8356 3.75029 14.9001 3.75014L14.9998 3.75Z" fill="white"/>
<path fill-rule="evenodd" clip-rule="evenodd" d="M11.559 9.51961C11.9437 9.29579 12.4185 9.29347 12.8054 9.51352L19.9929 13.601C20.3837 13.8232 20.625 14.2381 20.625 14.6876C20.625 15.1371 20.3837 15.552 19.9929 15.7742L12.8054 19.8617C12.4185 20.0817 11.9437 20.0794 11.559 19.8556C11.1742 19.6318 10.9375 19.2202 10.9375 18.7751V10.6001C10.9375 10.155 11.1742 9.74343 11.559 9.51961ZM13.4375 12.749V16.6262L16.8464 14.6876L13.4375 12.749Z" fill="white"/>
</g>
<defs>
<clipPath id="clip0">
<rect width="30" height="30" fill="white"/>
</clipPath>
</defs>
</svg>
